<?xml version="1.0" encoding="UTF-8"?>
<svg width="41px" height="41px" viewBox="0 0 41 41" version="1.1" xmlns="http://www.w3.org/2000/svg" xmlns:xlink="http://www.w3.org/1999/xlink">
    <!-- Generator: Sketch 52.5 (67469) - http://www.bohemiancoding.com/sketch -->
    <title>Education</title>
    <desc>Created with Sketch.</desc>
    <g id="Page-1" stroke="none" stroke-width="1" fill="none" fill-rule="evenodd">
        <g id="Desktop-HD-Copy-3" transform="translate(-189.000000, -1725.000000)" fill="#5B5C59">
            <path d="M226.168393,1744.154 C225.709346,1744.154 225.336786,1744.52457 225.336786,1744.98116 L225.336786,1764.34567 L190.663214,1764.34567 L190.663214,1729.65433 L212.373698,1729.65433 C212.832745,1729.65433 213.205305,1729.28376 213.205305,1728.82717 C213.205305,1728.37057 212.832745,1728 212.373698,1728 L189.831607,1728 C189.37256,1728 189,1728.37057 189,1728.82717 L189,1765.17283 C189,1765.62943 189.37256,1766 189.831607,1766 L226.168393,1766 C226.62744,1766 227,1765.62943 227,1765.17283 L227,1744.98116 C227,1744.52457 226.62744,1744.154 226.168393,1744.154 L226.168393,1744.154 Z M226.002195,1726.95397 C223.990414,1725.60298 222.564847,1725 221.377985,1725 C220.357662,1725 219.528302,1725.44924 218.915442,1726.33027 L218.757785,1726.5309 C218.555719,1726.78496 218.219312,1727.20803 217.852928,1727.70088 L207.665235,1742.30114 C207.581966,1742.42435 207.533115,1742.56719 207.524233,1742.71331 L207.001303,1752.13751 C206.985759,1752.40901 207.110108,1752.6707 207.331048,1752.83535 C207.477602,1752.9433 207.654132,1753 207.832883,1753 C207.923924,1753 208.016075,1752.98473 208.103785,1752.95529 L217.624216,1749.73757 C217.791864,1749.68087 217.936197,1749.57292 218.03723,1749.43008 L227.86076,1735.50477 L228.359264,1734.8102 C228.757846,1734.24538 229.070937,1733.80922 229.241917,1733.5737 L229.380698,1733.37961 C231.194854,1730.77359 228.706774,1728.77709 226.002195,1726.95397 L226.002195,1726.95397 Z M209,1751 L209.399314,1744 C210.025561,1744.27663 210.748909,1744.76437 210.988934,1745.39979 C211.087126,1745.6577 211.322787,1745.84802 211.60318,1745.90105 C211.619545,1745.90417 213.14043,1746.20576 213.630299,1747.3986 C213.740493,1747.66691 213.997974,1747.85515 214.298005,1747.88947 C214.307824,1747.88947 215.161004,1748.0153 216,1748.7048 L209,1751 L209,1751 Z M217.513831,1748 C216.609006,1747.09005 215.61838,1746.69848 215.042278,1746.5394 C214.34026,1745.23677 213.054339,1744.66833 212.372378,1744.44918 C211.797391,1743.349 210.715391,1742.71715 210,1742.39789 L218.946841,1729.32927 L219.18419,1729 C220.374279,1729.16575 222.035724,1729.89327 223.573479,1730.9445 C225.132407,1732.01241 226.42167,1733.30059 227,1734.3418 L217.513831,1748 L217.513831,1748 Z M227.696679,1732.64152 L227.574662,1732.81177 C227.537201,1732.86465 227.491177,1732.92915 227.440872,1733 C226.684155,1731.94995 225.50145,1730.84068 224.064009,1729.8657 C222.677943,1728.9288 221.246924,1728.25731 220,1727.9295 C220.012844,1727.9147 220.03211,1727.88932 220.043883,1727.87452 C220.158408,1727.72964 220.2344,1727.63236 220.252596,1727.60381 C220.545864,1727.18082 220.860538,1727 221.304721,1727 C222.083915,1727 223.245214,1727.52873 224.854976,1728.61791 C228.403091,1731.02256 228.255387,1731.83468 227.696679,1732.64152 L227.696679,1732.64152 Z" id="Education"></path>
        </g>
    </g>
</svg>