<?xml version="1.0" encoding="UTF-8"?>
<svg width="45px" height="45px" viewBox="0 0 45 45" version="1.1" xmlns="http://www.w3.org/2000/svg" xmlns:xlink="http://www.w3.org/1999/xlink">
    <!-- Generator: Sketch 52.5 (67469) - http://www.bohemiancoding.com/sketch -->
    <title>Leadgen</title>
    <desc>Created with Sketch.</desc>
    <g id="Page-1" stroke="none" stroke-width="1" fill="none" fill-rule="evenodd">
        <g id="Desktop-HD-Copy-3" transform="translate(-1207.000000, -1724.000000)" fill="#5B5C59">
            <path d="M1219.85606,1742.21378 L1211.04795,1742.21783 C1211.04795,1742.21783 1210.9236,1742.20469 1210.7194,1742.20469 C1210.06433,1742.20469 1208.83,1742.34511 1207.93736,1743.29166 C1207.24791,1744.02405 1206.93453,1745.05545 1207.01136,1746.35658 C1207.22668,1750.02155 1208.23962,1764.37636 1208.2467,1764.46828 C1208.2467,1766.03509 1209.19393,1769 1212.77965,1769 L1220.17551,1768.99899 C1220.18966,1769 1220.22302,1769 1220.23515,1769 C1221.02266,1769 1222.35707,1768.47369 1222.35707,1766.49877 L1222.35707,1745.4474 C1222.42682,1745.08677 1222.57947,1743.9402 1221.9062,1743.08356 C1221.59282,1742.68655 1220.98424,1742.21378 1219.85606,1742.21378 L1219.85606,1742.21378 Z M1220.86192,1745.1888 C1220.84777,1745.24638 1220.84069,1745.30699 1220.84069,1745.36659 L1220.84069,1766.49877 C1220.84069,1767.35541 1220.46059,1767.48471 1220.23515,1767.48471 L1220.23515,1768.24236 L1220.21494,1767.48471 L1212.77965,1767.48471 C1209.87427,1767.48471 1209.76611,1764.77336 1209.76206,1764.41474 C1209.75195,1764.27029 1208.74104,1749.92457 1208.52672,1746.26768 C1208.47517,1745.39892 1208.64904,1744.74734 1209.04128,1744.33114 C1209.56089,1743.77857 1210.38782,1743.71998 1210.7194,1743.71998 C1210.81443,1743.71998 1210.87609,1743.72503 1210.96707,1743.72907 L1219.85606,1743.72907 C1220.27256,1743.72907 1220.55865,1743.82605 1220.71231,1744.01799 C1220.97717,1744.35135 1220.90741,1744.99282 1220.86192,1745.1888 L1220.86192,1745.1888 Z M1249.97934,1746.88794 C1249.87522,1746.84147 1249.76907,1746.80005 1249.66394,1746.75964 C1250.43628,1746.27576 1251.20356,1745.46761 1251.20356,1744.07456 C1251.20356,1743.12296 1250.91444,1742.36834 1250.34327,1741.83294 C1249.46479,1741.00156 1248.2345,1740.93791 1247.87866,1740.93791 L1241.15607,1740.93791 C1241.04588,1740.93791 1240.80629,1740.8177 1240.77293,1740.80558 C1240.5576,1739.62063 1240.31094,1738.27808 1241.46945,1735.97889 C1242.04264,1734.8404 1242.01838,1732.53414 1241.41183,1730.24404 C1240.84369,1728.07718 1239.82166,1726.15276 1238.52768,1724.82537 C1238.50241,1724.7981 1238.47411,1724.77486 1238.44681,1724.75163 C1238.15971,1724.53141 1237.12655,1723.82932 1235.93671,1724.03843 C1235.15931,1724.17481 1234.50727,1724.65162 1233.99474,1725.45472 C1233.91791,1725.57695 1233.87646,1725.71737 1233.87646,1725.86183 L1233.86837,1731.2815 C1233.7966,1731.97651 1233.53982,1733.38977 1233.02325,1734.28783 C1232.63404,1734.96769 1230.7962,1737.94977 1229.07865,1740.58536 C1227.46624,1743.05931 1226.86677,1743.82302 1226.64942,1744.06142 C1225.94481,1744.84432 1224.4992,1744.92413 1223.69956,1744.89382 C1223.30329,1744.8918 1222.93026,1745.209 1222.91712,1745.62722 C1222.90397,1746.04544 1223.23353,1746.39496 1223.65205,1746.40911 C1224.94704,1746.44749 1226.71715,1746.25051 1227.77558,1745.07768 C1228.20926,1744.60087 1229.07461,1743.36742 1230.34937,1741.41169 C1231.96684,1738.92763 1233.88556,1735.83342 1234.34047,1735.04143 C1235.11382,1733.69384 1235.33925,1731.80074 1235.35947,1731.53405 C1235.38879,1731.41283 1235.39283,1731.30373 1235.39283,1731.22089 L1235.39283,1726.09619 C1235.63748,1725.76788 1235.90335,1725.58302 1236.19853,1725.53049 C1236.74544,1725.43553 1237.31762,1725.80627 1237.4824,1725.92345 C1238.57621,1727.06598 1239.44863,1728.7338 1239.946,1730.62993 C1240.50807,1732.7584 1240.45348,1734.62422 1240.11583,1735.29802 C1238.72886,1738.05079 1239.04932,1739.80044 1239.28183,1741.07833 C1239.44459,1741.96326 1240.49392,1742.4532 1241.15607,1742.4532 L1247.87866,1742.4532 C1248.21833,1742.4532 1248.9007,1742.55422 1249.30405,1742.93607 C1249.56184,1743.17751 1249.68719,1743.55027 1249.68719,1744.07456 C1249.68719,1745.15243 1248.88452,1745.5464 1247.91606,1745.91714 L1247.72702,1745.9919 C1247.51979,1746.07473 1246.88594,1746.32728 1246.92941,1746.96471 C1246.9749,1747.60618 1247.57033,1747.75266 1248.14554,1747.89308 C1248.50644,1747.98197 1248.95529,1748.09208 1249.36167,1748.2719 C1249.88735,1748.50727 1250.58387,1749.60838 1250.47166,1750.64686 C1250.32912,1751.93081 1249.01594,1752.46217 1247.93729,1752.6834 C1247.25897,1752.82483 1247.01028,1753.26628 1247.00119,1753.63096 C1246.99613,1753.92189 1247.11946,1754.44416 1248.03131,1754.67651 C1248.20215,1754.72601 1248.73592,1755.26747 1248.76726,1755.98167 C1248.8087,1756.95146 1247.85339,1757.52929 1247.03758,1757.84547 C1246.98804,1757.86568 1246.94255,1757.87982 1246.89908,1757.89295 C1246.65444,1757.97175 1246.14292,1758.1354 1245.99937,1758.80415 C1245.84166,1759.49815 1246.45125,1759.84262 1246.68174,1759.97193 C1247.04769,1760.17902 1247.42779,1760.39318 1247.42779,1761.40034 C1247.42779,1761.72966 1247.33883,1762.0509 1247.1599,1762.35598 C1246.97895,1762.6661 1246.51696,1763.00856 1246.26625,1763.19342 C1245.80931,1763.53386 1244.78121,1763.96016 1244.26666,1764.06825 L1244.16253,1764.09047 C1240.84268,1764.76629 1236.69894,1765.60677 1230.49899,1765.51989 C1227.24788,1765.47039 1225.43329,1764.52587 1224.56188,1764.0733 C1224.05136,1763.80762 1223.68238,1763.6177 1223.25678,1763.83591 C1222.89589,1764.01774 1222.78064,1764.43495 1222.9434,1764.80468 C1223.10211,1765.15926 1223.53782,1765.32291 1223.9068,1765.20269 C1223.72989,1765.28149 1223.56713,1765.2633 1223.50446,1765.24108 C1223.58735,1765.27038 1223.70361,1765.33503 1223.86131,1765.41685 C1224.83685,1765.92397 1226.86778,1766.97962 1230.47574,1767.03518 C1230.78609,1767.03922 1231.08835,1767.04124 1231.38758,1767.04124 C1237.26,1767.04124 1241.23997,1766.23208 1244.46581,1765.57444 L1244.57499,1765.55222 C1245.27454,1765.40372 1246.51493,1764.89762 1247.17001,1764.40969 C1247.63604,1764.06623 1248.15767,1763.65407 1248.47106,1763.11867 C1248.78545,1762.57923 1248.94518,1762.00039 1248.94518,1761.40034 C1248.94518,1760.1376 1248.48824,1759.45976 1248.03636,1759.06579 C1250.08852,1758.10307 1250.32912,1756.66557 1250.27858,1755.86247 C1250.23207,1755.11291 1249.88129,1754.35729 1249.39402,1753.83805 C1251.40979,1753.06727 1251.88492,1751.66008 1251.97793,1750.81253 C1252.16798,1749.08409 1251.09944,1747.38798 1249.97934,1746.88794 L1249.97934,1746.88794 Z" id="Leadgen"></path>
        </g>
    </g>
</svg>