<?xml version="1.0" encoding="UTF-8"?>
<svg width="266px" height="107px" viewBox="0 0 266 107" version="1.1" xmlns="http://www.w3.org/2000/svg" xmlns:xlink="http://www.w3.org/1999/xlink">
    <!-- Generator: Sketch 52.5 (67469) - http://www.bohemiancoding.com/sketch -->
    <title>Group 27</title>
    <desc>Created with Sketch.</desc>
    <defs>
        <polygon id="path-1" points="0.000430452117 0.230759036 266.147654 0.230759036 266.147654 107 0.000430452117 107"></polygon>
        <polygon id="path-3" points="0 0.230759036 76.9152188 0.230759036 76.9152188 107 0 107"></polygon>
    </defs>
    <g id="Page-1" stroke="none" stroke-width="1" fill="none" fill-rule="evenodd">
        <g id="Desktop-HD-Copy-3" transform="translate(-86.000000, -143.000000)">
            <g id="Group-27" transform="translate(86.000000, 143.000000)">
                <g id="Group-3">
                    <mask id="mask-2" fill="white">
                        <use xlink:href="#path-1"></use>
                    </mask>
                    <g id="Clip-2"></g>
                </g>
                <g id="Group-6">
                    <mask id="mask-4" fill="white">
                        <use xlink:href="#path-3"></use>
                    </mask>
                    <g id="Clip-5"></g>
                    <path d="M11.6264754,37.6830795 C11.3784098,31.687212 12.0522787,24.3428867 11.2185738,17.0217663 C11.0625738,15.6501036 10.6661803,14.4305614 10.0767049,13.2110193 C9.51919672,12.0559349 8.7634918,11.1986458 7.449,11.4577663 C6.15240984,11.7143084 5.62431148,12.8681036 5.5437541,14.0631518 C5.41588525,15.9878627 5.46959016,17.9254651 5.44145902,19.8579108 C5.42995082,20.6288265 5.59618033,21.4693566 5.35067213,22.1564771 C4.84431148,23.5706819 4.36096721,25.4928145 2.53116393,25.3123325 C0.735885246,25.1344289 -0.0722459016,23.5436096 0.0326065574,21.6769108 C0.256377049,17.6495855 -0.553032787,13.5500675 0.856081967,9.60524819 C1.94552459,6.55768193 3.47739344,3.94069398 7.09352459,3.61969398 C10.8937869,3.2832241 12.8489016,5.71973012 14.2656885,8.76858554 C15.988082,12.4774892 17.0391639,16.3217542 16.9534918,20.5050675 C16.8217869,26.9779229 16.9189672,33.4559349 16.9547705,39.9313687 C16.9598852,40.8286217 16.4432951,42.2002843 17.629918,42.4503807 C18.718082,42.6798506 18.9674262,41.2437301 19.383,40.4508988 C22.8405738,33.8375253 26.0436885,27.086212 29.9245082,20.7023084 C33.5521475,14.7360916 37.6222131,9.14888675 43.386541,5.06226024 C50.7505082,-0.156245783 58.7870656,-0.982595181 67.1854918,1.78909157 C72.694082,3.60809157 76.811459,8.86011566 76.909918,15.430947 C77.1081148,28.5996819 71.7261148,39.4389108 64.5091967,49.736694 C63.6806066,50.9188506 62.9504754,52.2002723 61.9697213,53.2393325 C59.1911311,56.1850554 58.1298197,58.9979952 61.8137213,62.0945494 C62.6538197,62.8022964 63.2458525,64.3647542 62.028541,65.1227783 C60.2447705,66.2327422 59.3215574,69.6683446 56.494377,68.0955735 C52.3424754,65.7854048 48.6624098,66.8438024 44.8122787,68.6937422 C42.315,69.8926578 39.6655574,70.7718627 37.0864426,71.8006096 C34.7515574,72.7326699 32.6992623,72.2363446 31.1290328,70.3245253 C29.7697869,68.667959 30.0626066,66.9598265 30.4858525,64.7837301 C31.5254262,59.4440434 34.6479836,56.3126819 39.2256885,54.2603446 C42.0490328,52.9943928 45.1511311,53.3824289 48.0358525,53.712453 C52.9920492,54.2809711 55.9164098,51.9127904 58.399623,48.058212 C63.2829344,40.4766819 65.8940164,32.3330795 65.575623,23.2019831 C65.304541,15.3961398 60.2089672,11.1483687 52.5790328,12.7739952 C48.6483443,13.611947 45.3314262,15.6436578 42.1551639,18.0608265 C38.5454262,20.8080193 35.7617213,24.3003446 33.3488361,28.0272964 C28.0115902,36.271453 23.2676557,44.8585253 19.7295246,54.0772843 C17.8409016,58.9941277 16.7399508,64.033441 16.9125738,69.3318747 C17.2590984,79.8952241 16.849918,90.3683325 13.0701148,100.416019 C12.7990328,101.136658 12.617459,101.908863 12.2402459,102.567622 C11.074082,104.604489 10.3273279,107.264019 7.23929508,106.979116 C5.38519672,106.807658 2.71529508,103.445537 2.535,100.883983 C2.32529508,97.9098988 2.20254098,94.9087422 2.84827869,91.9372361 C4.73306557,83.2741036 7.19965574,74.7708265 9.81457377,66.3152482 C11.1111639,62.1216217 11.8310656,57.9254169 11.6673934,53.5126337 C11.488377,48.6860313 11.6264754,43.8478265 11.6264754,37.6830795" id="Fill-4" fill="#EC1E25" mask="url(#mask-4)"></path>
                </g>
                <path d="M115.783821,57.2740828 C115.783821,57.6607871 115.823779,58.0539581 115.777376,58.4354892 C115.430642,61.3208986 116.978699,63.2699403 119.132574,64.7236383 C121.240045,66.1462965 123.182528,64.896944 125.037361,63.8519369 C128.512433,61.8938419 130.521942,58.577755 132.505672,55.3379743 C136.192136,49.3136636 135.811889,48.1419106 130.02311,44.1623477 C128.034224,42.7940092 126.210326,42.2236526 123.88373,43.3928189 C118.134908,46.2795217 116.410262,51.4308376 115.783821,57.2740828 M145.002269,54.2981405 C144.584642,59.8154676 144.95071,65.0883561 148.561124,69.7443284 C149.978995,71.5717975 147.747782,74.5451531 144.922353,74.9176308 C141.291315,75.398748 138.491665,73.7588111 137.133087,70.3496048 C136.453798,68.6424149 135.729395,66.950745 135.124866,65.2163954 C134.677592,63.9308297 134.10271,63.6993244 133.143714,64.7107051 C131.614992,66.3234821 130.101737,67.9530724 128.558836,69.5542095 C123.690384,74.6072327 118.101395,76.3351157 113.249699,73.8907303 C108.707357,71.6028373 105.700182,67.9401391 105.130456,62.660784 C103.940734,51.6131965 111.072623,41.093286 119.01141,36.7994449 C122.56511,34.8788564 126.404961,34.6344178 130.200988,35.4155865 C132.968414,35.9846498 134.778132,38.1445036 136.059372,40.6729551 C136.519535,41.5808697 136.845646,42.4849043 138.152665,42.8185823 C144.71225,44.4921457 144.753497,44.6150116 144.998402,51.3894512 C145.033204,52.3581521 145.002269,53.3281463 145.002269,54.2981405" id="Fill-7" fill="#EC1E25"></path>
                <path d="M208.205638,73.470939 C208.277454,71.9208849 208.196661,70.3475798 208.463408,68.836277 C208.791713,66.9736285 210.33449,65.9350922 211.981145,66.0487629 C213.702181,66.1676004 213.530334,67.9243284 213.539311,69.2883761 C213.5547,71.3202388 213.534181,73.3572684 213.668838,75.3826726 C213.771433,76.9340185 214.224135,78.4207788 215.065416,79.7654508 C217.185292,83.1510275 218.80758,83.2776153 221.458386,80.4087233 C225.201833,76.357915 225.737893,71.4468266 225.212092,66.3083969 C224.9851,64.0763189 223.13069,63.1230356 221.180097,62.6980624 C217.426391,61.8817005 213.643189,61.1945098 209.865117,60.4892352 C202.493644,59.1135621 199.863357,54.0461765 203.869704,47.6134516 C208.82121,39.6655487 216.363247,35.5062367 225.705832,35.0089276 C228.260455,34.8732979 230.099476,36.2877223 230.7112,38.9331481 C231.42039,41.9957969 230.080239,45.5712552 228.005249,46.6420843 C226.916457,47.203979 226.171358,46.7854644 225.439084,46.1124825 C224.263085,45.0313197 223.094781,45.0868633 221.761042,45.8618904 C219.84251,46.9766377 217.918848,48.0771762 216.331186,49.6478978 C214.33186,51.628092 214.502425,52.8048415 217.033964,54.0087169 C219.750174,55.3017204 222.702354,55.8261555 225.623756,56.4255097 C228.251478,56.9641536 230.7843,57.6771785 233.090129,59.1975233 C235.047135,60.4879434 236.003836,62.1051667 235.999988,64.4534988 C235.993576,69.5751362 233.713396,73.7925753 231.061307,77.9363868 C229.672423,80.1038793 228.402806,82.3230402 226.590716,84.184397 C223.711636,87.1437088 220.474754,89.0218578 216.276041,87.4046346 C211.913176,85.7254092 209.218766,82.5012964 208.448019,77.8149659 C208.213332,76.3940829 208.278737,74.9228231 208.205638,73.470939" id="Fill-9" fill="#EC1E25"></path>
                <path d="M185,40.2161106 C184.954726,41.635266 183.932821,43.4398394 182.485338,45.0453228 C181.308207,46.3508946 180.039235,46.0599167 178.951359,44.9891691 C177.815622,43.8712014 176.959291,44.1532458 176.088732,45.2342031 C175.00603,46.580614 173.963429,47.962759 172.813463,49.2517401 C171.54449,50.6734479 171.512151,52.0351734 172.449975,53.6763908 C174.870208,57.917266 177.223176,62.1977041 179.483008,66.5228097 C180.048289,67.6050433 181.350895,69.0063316 179.968089,70.1191944 C178.730162,71.1133689 177.205066,70.3897528 175.925745,69.585735 C172.468085,67.4136105 169.650732,64.4897931 166.729896,61.7203982 C165.014648,60.0932192 163.997918,60.3790922 162.939793,62.1760083 C160.85071,65.725173 158.733168,69.2590229 156.695826,72.8349881 C155.74248,74.5093873 154.765849,76.1723004 153.37787,77.5097778 C152.472384,78.3814353 151.473764,79.6780736 149.933145,78.5766967 C148.497304,77.551893 148.98756,76.2259016 149.623987,74.9841407 C152.46333,69.440246 155.517402,64.0201446 159.154865,58.9369649 C159.545517,58.3907432 159.876666,57.7883679 160.338464,57.3085097 C161.779479,55.8115049 161.564749,54.5327337 160.410903,52.8302577 C158.211867,49.5886618 156.152535,46.2168917 155.093117,42.3895113 C154.5951,40.5951476 154.181164,38.7267632 156.215919,37.5424322 C158.182115,36.3976638 160.05647,36.7014039 161.859679,38.0848252 C163.881498,39.6354311 165.283707,41.7118391 166.917461,43.5917095 C168.719376,45.6655651 169.283364,45.5507054 170.966273,43.2879694 C173.15496,40.346285 175.809325,37.827029 179.000514,35.9560921 C182.619867,33.832464 184.996119,35.243962 185,40.2161106" id="Fill-11" fill="#EC1E25"></path>
                <path d="M90.6011243,48.5109484 C92.0626323,46.8867978 92.6833598,45.2022076 92.6375684,43.188415 C92.598137,41.4613886 92.5574335,39.6996416 92.8436296,38.0086217 C93.2951834,35.3544277 95.6839667,33.7328489 98.291531,34.0363323 C100.841856,34.333386 102.211781,35.8906675 102.207965,38.8046227 C102.202877,42.1017901 102.279196,45.3899558 103.679649,48.4222181 C104.670524,50.5710351 103.145417,51.754106 102.054055,52.8600202 C101.047917,53.87849 99.5978571,53.4155492 98.3411383,52.6941331 C94.7503315,50.6353324 94.1893872,50.9002374 93.3117192,55.0718485 C92.9123167,56.9711918 92.956836,58.8846805 93.326983,60.8084568 C93.9311747,63.9513105 94.4590475,67.1108816 94.9932802,70.2678807 C95.1942534,71.4496658 95.226053,72.6854606 93.9629743,73.2924274 C92.2674215,74.1077176 90.4879179,74.3366161 88.7529336,73.3425793 C86.1504573,71.8508811 85.4941143,69.1581087 84.9942251,66.5424931 C84.1292769,62.0121029 83.0824353,57.54601 81.570048,53.1905085 C80.7941386,50.958105 79.5208841,49.0484742 77.8494989,47.4513284 C76.7848495,46.4341445 76.7263383,45.5455553 77.6434378,44.5026526 C78.65212,43.3555881 79.5806672,42.104362 80.7279955,41.1180408 C83.7782098,38.4985674 86.0512426,39.2701354 87.5165666,43.0289576 C88.2517725,44.9115836 89.4995874,46.5897441 90.6011243,48.5109484" id="Fill-13" fill="#EC1E25"></path>
                <path d="M186.552321,56.6818585 C186.552321,53.6529763 186.55858,51.152253 186.548565,48.6515297 C186.546061,47.798251 186.762635,46.8627286 186.121678,46.1623719 C184.026051,43.8749682 185.237859,41.9229648 186.743857,40.0930419 C189.2864,37.006332 192.700244,35.1262918 196.190452,33.4852725 C198.629091,32.3402856 199.638097,33.2346861 199.509154,36.0284027 C199.273803,41.1352241 197.292096,45.9516223 197.099308,51.0622989 C196.990396,53.9421144 196.865209,56.8296402 196.964107,59.7056005 C197.041722,61.9711582 197.885481,64.019541 199.685668,65.4960729 C201.448298,66.9430484 201.25551,68.5352356 200.178904,70.3060458 C198.506408,73.0612106 195.694712,74.415662 192.486175,73.8875031 C189.333971,73.3696246 187.966932,71.0488095 187.219566,68.2049756 C186.180516,64.2444262 186.664989,60.1785019 186.552321,56.6818585" id="Fill-15" fill="#EC1E25"></path>
                <path d="M262.497322,14.965036 C262.456239,8.08266911 258.831929,4.71028383 252.223951,4.31150915 C245.971599,3.93439315 241.451161,8.38716479 241.401091,14.2209964 C241.348453,20.3631457 245.863755,24.962432 252.003128,24.9547878 C257.546795,24.9471436 262.392046,20.3351169 262.497322,14.965036 M251.804131,27.9933745 C243.995753,27.9564273 237.96294,22.0499754 238.000171,14.4770785 C238.038687,6.81754686 244.207588,1.05506156 252.136649,1.00027782 C259.640755,0.949316197 265.831482,7.91831788 265.997098,14.6108528 C266.176837,21.8767059 257.969181,28.2341681 251.804131,27.9933745" id="Fill-17" fill="#EC1E25"></path>
                <path d="M197.563168,11.0181922 C199.961738,11.2424589 202.152332,13.8880451 201.99168,16.3651146 C201.816084,19.0639167 198.439904,22.1631044 195.858266,21.9933206 C193.124693,21.8134005 190.76473,18.9068033 191.018784,16.0344163 C191.250422,13.4255744 194.736193,10.7533802 197.563168,11.0181922" id="Fill-19" fill="#EC1E25"></path>
                <path d="M252.37669,9.46474939 C251.169451,9.68962464 249.350753,8.73676341 249.380803,11.289161 C249.405627,13.3473413 250.726535,13.0093932 251.935081,12.9738197 C253.497698,12.9280824 255.7371,13.5086925 255.791974,11.1671948 C255.83901,9.22081692 253.826945,9.55114214 252.37669,9.46474939 M255.100817,15.1920806 C255.913482,16.551496 256.526247,17.622512 257.186048,18.6655775 C257.611979,19.3389327 258.09409,19.9983127 257.163837,20.6068734 C256.441323,21.0782221 255.815492,20.9244938 255.044636,20.4442518 C254.038603,19.8153634 253.842623,18.7506997 253.181516,17.9617306 C252.285232,16.8919851 252.327041,14.4945862 250.17387,15.1768349 C248.543314,15.6951914 249.591156,17.5081687 249.489246,18.7138558 C249.37819,20.04405 249.515376,21.1785902 247.537281,20.9765836 C246.475068,20.8685926 245.977278,20.6703975 246.000795,19.5002839 C246.071348,15.8870341 246.064815,12.2725138 246.006021,8.65926403 C245.986423,7.45865887 246.307831,6.93522044 247.652256,7.00636741 C249.993569,7.12833365 252.344026,7.04575234 254.686645,7.14612039 C256.937806,7.24394748 258.683338,8.02656417 258.955097,10.5535522 C259.232083,13.1415233 258.261327,14.8083952 255.100817,15.1920806" id="Fill-23" fill="#EC1E25"></path>
            </g>
        </g>
    </g>
</svg>