<?xml version="1.0" encoding="UTF-8"?>
<svg width="53px" height="41px" viewBox="0 0 53 41" version="1.1" xmlns="http://www.w3.org/2000/svg" xmlns:xlink="http://www.w3.org/1999/xlink">
    <!-- Generator: Sketch 52.5 (67469) - http://www.bohemiancoding.com/sketch -->
    <title>Recruitment</title>
    <desc>Created with Sketch.</desc>
    <g id="Page-1" stroke="none" stroke-width="1" fill="none" fill-rule="evenodd">
        <g id="Desktop-HD-Copy-3" transform="translate(-692.000000, -1723.000000)" fill="#5B5C59">
            <path d="M725.569864,1756.07723 C725.493311,1755.66561 725.101483,1755.39321 724.688502,1755.4709 C724.278544,1755.54858 724.007588,1755.94305 724.08414,1756.35367 L724.628066,1759.27641 C724.746924,1759.84441 724.679437,1760.29941 724.420569,1760.66665 C724.028741,1761.22456 723.173568,1761.61197 721.971895,1761.78146 L715.464931,1762.48567 C714.438523,1762.4443 713.334555,1762.03671 712.826891,1759.5024 L712.503557,1757.7429 C712.428012,1757.33229 712.040213,1757.05787 711.623203,1757.13757 C711.212237,1757.21324 710.942289,1757.60771 711.017834,1758.01833 L711.345197,1759.78892 C711.889123,1762.51997 713.278148,1763.93644 715.469967,1764 L715.493135,1764 C715.520331,1764 715.54652,1763.99899 715.573716,1763.99596 L722.15824,1763.28369 C723.832323,1763.0466 725.008814,1762.45943 725.657496,1761.53731 C726.15408,1760.83009 726.3092,1759.94126 726.110768,1758.98383 L725.569864,1756.07723 L725.569864,1756.07723 Z M744.885273,1750.54452 L735.163103,1724.19146 C734.827682,1723.27842 733.771056,1722.76389 732.817171,1723.10691 C732.356849,1723.27741 731.99121,1723.6164 731.786734,1724.06333 C731.60744,1724.4568 731.581251,1724.8886 731.69608,1725.29619 L693.588034,1751.31026 C693.354347,1751.27596 693.11361,1751.29714 692.894025,1751.38391 C692.547524,1751.51405 692.272539,1751.77636 692.122456,1752.12039 C691.965322,1752.47451 691.960286,1752.88513 692.102311,1753.24328 L693.995978,1758.1061 C694.218585,1758.6852 694.767547,1759.04537 695.346727,1759.04537 C695.512927,1759.04537 695.680134,1759.01712 695.841297,1758.95457 C696.120311,1758.84561 696.348961,1758.6509 696.502066,1758.40372 L741.738562,1752.29796 C742.079019,1752.72875 742.606828,1752.99509 743.176943,1752.99509 C743.279685,1752.99509 743.383434,1752.98601 743.509342,1752.96483 C743.602011,1752.94566 743.688636,1752.92245 743.792385,1752.88614 C744.257744,1752.71967 744.625398,1752.38371 744.831888,1751.9398 C745.036364,1751.49791 745.054495,1751.00154 744.885273,1750.54452 L744.885273,1750.54452 Z M695.854392,1756.96404 C695.622719,1756.99532 695.426302,1757.1295 695.310466,1757.31816 L693.57091,1752.89824 C693.842873,1752.95676 694.128938,1752.86596 694.310247,1752.64602 L700.916931,1748.13732 L703.757432,1755.89664 L695.854392,1756.96404 L695.854392,1756.96404 Z M705.293519,1755.68982 L702.205229,1747.25858 L732.222882,1726.76815 L741.109018,1750.85626 L705.293519,1755.68982 L705.293519,1755.68982 Z M743.459986,1751.3032 C743.436819,1751.35465 743.385448,1751.42527 743.232343,1751.47672 L743.176943,1751.48177 C743.065136,1751.48177 742.92714,1751.42023 742.87577,1751.27999 L733.14957,1724.91685 C733.115323,1724.82504 733.137483,1724.74433 733.159643,1724.69388 C733.180796,1724.64848 733.232167,1724.56676 733.332894,1724.52843 C733.370163,1724.51632 733.408439,1724.50926 733.444701,1724.50926 C733.556508,1724.50926 733.692489,1724.57181 733.744867,1724.71507 L743.468044,1751.07115 C743.505313,1751.17103 743.485168,1751.25275 743.459986,1751.3032 L743.459986,1751.3032 Z" id="Recruitment"></path>
        </g>
    </g>
</svg>