<?xml version="1.0" encoding="UTF-8"?>
<svg width="85px" height="89px" viewBox="0 0 85 89" version="1.1" xmlns="http://www.w3.org/2000/svg" xmlns:xlink="http://www.w3.org/1999/xlink">
    <!-- Generator: Sketch 52.5 (67469) - http://www.bohemiancoding.com/sketch -->
    <title>Step5</title>
    <desc>Created with Sketch.</desc>
    <g id="Page-1" stroke="none" stroke-width="1" fill="none" fill-rule="evenodd">
        <g id="Desktop-HD-Copy-3" transform="translate(-195.000000, -3543.000000)" fill="#5B5C59">
            <path d="M275.159786,3543.00732 C275.079716,3542.98526 274.925582,3543.01935 274.841509,3543.02738 L264.330358,3543.04342 C264.302334,3543.04342 264.276311,3543.05947 264.248287,3543.05947 C264.156207,3543.04141 264.072133,3543.00531 263.974048,3543.00531 L211.053976,3543.00531 C210.951888,3543.00531 210.861809,3543.04342 210.765725,3543.06348 C210.733698,3543.06147 210.705673,3543.04342 210.671644,3543.04342 L200.448744,3543.04944 C200.440737,3543.04743 200.186515,3543.02938 200.178508,3543.02938 C200.068413,3543.00932 199.956315,3542.99528 199.844217,3543.00732 C197.127852,3543.11161 195,3545.33192 195,3548.05766 C195,3549.40348 195.52846,3550.6771 196.491298,3551.64384 L209.552669,3564.73501 L209.552669,3567.74355 C209.552669,3582.37109 221.310906,3594.32302 236.04173,3595.08117 C236.033723,3595.15137 235.999694,3595.21556 235.999694,3595.28977 L235.999694,3628.99146 L220.640322,3628.99146 C219.811601,3628.99146 219.139015,3629.66537 219.139015,3630.49573 C219.139015,3631.32609 219.811601,3632 220.640322,3632 L254.363681,3632 C255.192403,3632 255.864988,3631.32609 255.864988,3630.49573 C255.864988,3629.66537 255.192403,3628.99146 254.363681,3628.99146 L239.002308,3628.99146 L239.002308,3595.28977 C239.002308,3595.21556 238.97028,3595.15338 238.960271,3595.08117 C253.705108,3594.33506 265.475355,3582.37911 265.475355,3567.74355 L265.475355,3564.70693 L278.516709,3551.63983 C279.473542,3550.67509 280,3549.40348 280,3548.05766 C280,3545.33192 277.874149,3543.11161 275.159786,3543.00732 L275.159786,3543.00732 Z M209.552669,3560.48093 L198.615147,3549.51981 C198.214799,3549.11666 198.002614,3548.61123 198.002614,3548.05766 C198.002614,3546.99063 198.805313,3546.11414 199.852224,3546.01987 C199.944304,3546.0299 200.056402,3546.03592 200.204531,3546.04595 C200.244566,3546.04996 200.380684,3546.05196 200.422721,3546.05196 L209.552669,3546.05196 L209.552669,3560.48093 L209.552669,3560.48093 Z M262.472741,3567.74355 C262.472741,3581.19775 251.276994,3592.14484 237.513011,3592.14484 C223.753032,3592.14484 212.555283,3581.19775 212.555283,3567.74355 L212.555283,3546.01385 L262.472741,3546.01385 L262.472741,3567.74355 L262.472741,3567.74355 Z M276.390858,3549.5178 L265.475355,3560.45285 L265.475355,3546.05196 L274.677366,3546.05196 C274.709394,3546.05196 274.895556,3546.03792 274.925582,3546.03592 C275.00365,3546.03191 275.077715,3546.02789 275.151779,3546.01987 C276.196689,3546.11615 276.997386,3546.99063 276.997386,3548.05766 C276.997386,3548.61123 276.787203,3549.11867 276.390858,3549.5178 L276.390858,3549.5178 Z" id="Step5"></path>
        </g>
    </g>
</svg>