<?xml version="1.0" encoding="UTF-8"?>
<svg width="81px" height="76px" viewBox="0 0 81 76" version="1.1" xmlns="http://www.w3.org/2000/svg" xmlns:xlink="http://www.w3.org/1999/xlink">
    <!-- Generator: Sketch 52.5 (67469) - http://www.bohemiancoding.com/sketch -->
    <title>Step2</title>
    <desc>Created with Sketch.</desc>
    <g id="Page-1" stroke="none" stroke-width="1" fill="none" fill-rule="evenodd">
        <g id="Desktop-HD-Copy-3" transform="translate(-868.000000, -2987.000000)" fill="#5B5C59">
            <path d="M908.5,3010.852 C915.121734,3010.852 920.506903,3005.50246 920.506903,2998.925 C920.506903,2992.34953 915.121734,2987 908.5,2987 C901.878266,2987 896.489088,2992.34953 896.489088,2998.925 C896.489088,3005.50246 901.878266,3010.852 908.5,3010.852 L908.5,3010.852 Z M908.5,2989.98523 C913.462292,2989.98523 917.500668,2993.99539 917.500668,2998.925 C917.500668,3003.8566 913.462292,3007.86676 908.5,3007.86676 C903.535704,3007.86676 899.495324,3003.8566 899.495324,2998.925 C899.495324,2993.99539 903.535704,2989.98523 908.5,2989.98523 L908.5,2989.98523 Z M939.616538,3044.36022 C934.439801,3044.36022 930.231072,3048.54153 930.231072,3053.68011 C930.231072,3058.81869 934.439801,3063 939.616538,3063 C944.789267,3063 949,3058.81869 949,3053.68011 C949,3048.54153 944.789267,3044.36022 939.616538,3044.36022 L939.616538,3044.36022 Z M939.616538,3060.01477 C936.097239,3060.01477 933.237307,3057.17283 933.237307,3053.68011 C933.237307,3050.18739 936.097239,3047.34545 939.616538,3047.34545 C943.131829,3047.34545 945.991761,3050.18739 945.991761,3053.68011 C945.991761,3057.17283 943.131829,3060.01477 939.616538,3060.01477 L939.616538,3060.01477 Z M877.383462,3041.70933 C878.213183,3041.70933 878.88658,3041.04064 878.88658,3040.21672 L878.88658,3030.23012 L906.996882,3030.23012 L906.996882,3040.40976 C906.996882,3041.23369 907.670279,3041.90238 908.5,3041.90238 C909.329721,3041.90238 910.003118,3041.23369 910.003118,3040.40976 L910.003118,3030.23012 L937.866909,3030.23012 L937.866909,3040.21672 C937.866909,3041.04064 938.540306,3041.70933 939.370027,3041.70933 C940.199748,3041.70933 940.873144,3041.04064 940.873144,3040.21672 L940.873144,3028.73751 C940.873144,3027.91359 940.199748,3027.24489 939.370027,3027.24489 L910.003118,3027.24489 L910.003118,3015.14675 C910.003118,3014.32282 909.329721,3013.65413 908.5,3013.65413 C907.670279,3013.65413 906.996882,3014.32282 906.996882,3015.14675 L906.996882,3027.24489 L877.383462,3027.24489 C876.551737,3027.24489 875.880344,3027.91359 875.880344,3028.73751 L875.880344,3040.21672 C875.880344,3041.04064 876.551737,3041.70933 877.383462,3041.70933 L877.383462,3041.70933 Z M908.5,3044.36022 C903.325267,3044.36022 899.116538,3048.54153 899.116538,3053.68011 C899.116538,3058.81869 903.325267,3063 908.5,3063 C913.672729,3063 917.883462,3058.81869 917.883462,3053.68011 C917.883462,3048.54153 913.672729,3044.36022 908.5,3044.36022 L908.5,3044.36022 Z M908.5,3060.01477 C904.984709,3060.01477 902.122773,3057.17283 902.122773,3053.68011 C902.122773,3050.18739 904.984709,3047.34545 908.5,3047.34545 C912.015291,3047.34545 914.877227,3050.18739 914.877227,3053.68011 C914.877227,3057.17283 912.015291,3060.01477 908.5,3060.01477 L908.5,3060.01477 Z M877.383462,3044.36022 C872.208729,3044.36022 868,3048.54153 868,3053.68011 C868,3058.81869 872.208729,3063 877.383462,3063 C882.556191,3063 886.76492,3058.81869 886.76492,3053.68011 C886.76492,3048.54153 882.556191,3044.36022 877.383462,3044.36022 L877.383462,3044.36022 Z M877.383462,3060.01477 C873.866167,3060.01477 871.006235,3057.17283 871.006235,3053.68011 C871.006235,3050.18739 873.866167,3047.34545 877.383462,3047.34545 C880.898753,3047.34545 883.758685,3050.18739 883.758685,3053.68011 C883.758685,3057.17283 880.898753,3060.01477 877.383462,3060.01477 L877.383462,3060.01477 Z" id="Step2"></path>
        </g>
    </g>
</svg>