<?xml version="1.0" encoding="UTF-8"?>
<svg width="101px" height="72px" viewBox="0 0 101 72" version="1.1" xmlns="http://www.w3.org/2000/svg" xmlns:xlink="http://www.w3.org/1999/xlink">
    <!-- Generator: Sketch 52.5 (67469) - http://www.bohemiancoding.com/sketch -->
    <title>Step4</title>
    <desc>Created with Sketch.</desc>
    <g id="Page-1" stroke="none" stroke-width="1" fill="none" fill-rule="evenodd">
        <g id="Desktop-HD-Copy-3" transform="translate(-858.000000, -3374.000000)" fill="#5B5C59">
            <path d="M915.076814,3389.25775 C915.076814,3385.60208 912.125871,3382.6277 908.499003,3382.6277 C904.872135,3382.6277 901.921192,3385.60208 901.921192,3389.25775 C901.921192,3392.91542 904.872135,3395.89181 908.499003,3395.89181 C912.125871,3395.89181 915.076814,3392.91542 915.076814,3389.25775 L915.076814,3389.25775 Z M908.499003,3392.87724 C906.521074,3392.87724 904.912013,3391.25339 904.912013,3389.25775 C904.912013,3387.26411 906.521074,3385.64227 908.499003,3385.64227 C910.474938,3385.64227 912.085993,3387.26411 912.085993,3389.25775 C912.085993,3391.25339 910.474938,3392.87724 908.499003,3392.87724 L908.499003,3392.87724 Z M926.192696,3409.27851 C925.373211,3409.15592 924.621518,3409.74477 924.511855,3410.57076 C924.400197,3411.39675 924.976429,3412.15441 925.79392,3412.26495 C943.585312,3414.68263 956.00918,3420.76805 956.00918,3427.05845 C956.00918,3434.74962 936.919771,3442.98543 908.499003,3442.98543 C880.080229,3442.98543 860.99082,3434.74962 860.99082,3427.05845 C860.99082,3420.758 873.442602,3414.67057 891.27786,3412.25289 C892.095351,3412.14436 892.667595,3411.38469 892.557931,3410.56071 C892.448268,3409.73472 891.694581,3409.14587 890.875096,3409.26645 C870.906386,3411.97153 858,3418.95528 858,3427.05845 C858,3437.67979 880.181917,3446 908.499003,3446 C936.818083,3446 959,3437.67979 959,3427.05845 C959,3418.96533 946.121528,3411.98761 926.192696,3409.27851 L926.192696,3409.27851 Z M897.70613,3423.42489 C898.525614,3423.33043 899.115803,3422.58282 899.022091,3421.75682 C898.930372,3420.93083 898.186655,3420.35203 897.36717,3420.43041 C890.468345,3421.22224 882.247577,3423.01491 882.247577,3427.05845 C882.247577,3432.76805 898.748929,3434.29141 908.499003,3434.29141 C918.251071,3434.29141 934.750429,3432.76805 934.750429,3427.05845 C934.750429,3423.02495 926.577515,3421.2343 919.720561,3420.44247 C918.911045,3420.36007 918.159352,3420.94088 918.06564,3421.76888 C917.969934,3422.59488 918.558129,3423.34249 919.379607,3423.43695 C929.067871,3424.55636 931.612062,3426.60626 931.763597,3427.02428 C931.31298,3428.50745 922.920738,3431.27684 908.499003,3431.27684 C894.079262,3431.27684 885.689014,3428.50745 885.234409,3427.09261 C885.385944,3426.60425 887.952068,3424.54631 897.70613,3423.42489 L897.70613,3423.42489 Z M908.499003,3427.07252 C908.873853,3427.07252 909.248702,3426.93184 909.539809,3426.65048 C910.221716,3425.98325 926.332267,3410.08642 926.332267,3393.27717 C926.332267,3382.6478 918.330826,3374 908.499003,3374 C898.66718,3374 890.669727,3382.6478 890.669727,3393.27717 C890.669727,3409.8131 906.764327,3425.96115 907.450222,3426.64043 C907.739335,3426.92782 908.120166,3427.07252 908.499003,3427.07252 L908.499003,3427.07252 Z M908.499003,3377.01457 C916.681887,3377.01457 923.341447,3384.30983 923.341447,3393.27717 C923.341447,3406.43276 912.046116,3419.59437 908.506979,3423.39273 C904.971829,3419.55016 893.660547,3406.23782 893.660547,3393.27717 C893.660547,3384.30983 900.318113,3377.01457 908.499003,3377.01457 L908.499003,3377.01457 Z" id="Step4"></path>
        </g>
    </g>
</svg>