<?xml version="1.0" encoding="UTF-8"?>
<svg width="85px" height="76px" viewBox="0 0 85 76" version="1.1" xmlns="http://www.w3.org/2000/svg" xmlns:xlink="http://www.w3.org/1999/xlink">
    <!-- Generator: Sketch 52.5 (67469) - http://www.bohemiancoding.com/sketch -->
    <title>Step1</title>
    <desc>Created with Sketch.</desc>
    <g id="Page-1" stroke="none" stroke-width="1" fill="none" fill-rule="evenodd">
        <g id="Desktop-HD-Copy-3" transform="translate(-190.000000, -2777.000000)" fill="#5B5C59">
            <path d="M221.474068,2835.43164 L206.438671,2850.4421 C205.857421,2851.02226 205.853467,2851.96926 206.428786,2852.55541 C206.719411,2852.85247 207.10098,2853 207.482549,2853 C207.860164,2853 208.237779,2852.85645 208.526427,2852.56737 L223.559846,2837.55891 C224.143073,2836.97675 224.147027,2836.02975 223.569731,2835.44161 C222.992435,2834.85547 222.055318,2834.85348 221.474068,2835.43164 L221.474068,2835.43164 Z M244.527043,2835.43164 C243.945537,2834.85348 243.00603,2834.85547 242.430458,2835.44161 C241.852908,2836.02975 241.856864,2836.97675 242.440348,2837.55691 L257.472463,2852.56538 C257.763216,2852.85645 258.139018,2853 258.516799,2853 C258.898536,2853 259.280273,2852.85247 259.571025,2852.55541 C260.146597,2851.96926 260.142641,2851.02426 259.561136,2850.4421 L244.527043,2835.43164 L244.527043,2835.43164 Z M210.510006,2814 C210.896696,2814 211.283387,2813.8521 211.577432,2813.55427 L225.699687,2799.34766 L236.202762,2809.9155 C236.486738,2810.19914 236.8694,2810.3592 237.272202,2810.3592 C237.670977,2810.3592 238.055653,2810.19914 238.339629,2809.9155 L255.557421,2792.59485 C256.147526,2792.00122 256.147526,2791.03885 255.557421,2790.44522 C254.967315,2789.85159 254.012673,2789.85159 253.422568,2790.44522 L237.272202,2806.69206 L226.769128,2796.12422 C226.485152,2795.83855 226.100476,2795.67849 225.699687,2795.67849 C225.300913,2795.67849 224.916236,2795.83855 224.632261,2796.12422 L209.442579,2811.40666 C208.852474,2812.0003 208.852474,2812.96064 209.442579,2813.55427 C209.736625,2813.8521 210.123315,2814 210.510006,2814 L210.510006,2814 Z M273.498693,2828.97237 L266.836893,2828.97237 L266.836893,2780.02763 L273.498693,2780.02763 C274.327414,2780.02763 275,2779.34944 275,2778.51382 C275,2777.67819 274.327414,2777 273.498693,2777 L191.501307,2777 C190.672586,2777 190,2777.67819 190,2778.51382 C190,2779.34944 190.672586,2780.02763 191.501307,2780.02763 L198.16711,2780.02763 L198.16711,2828.97237 L191.501307,2828.97237 C190.672586,2828.97237 190,2829.65056 190,2830.48618 C190,2831.32181 190.672586,2832 191.501307,2832 L273.498693,2832 C274.327414,2832 275,2831.32181 275,2830.48618 C275,2829.65056 274.327414,2828.97237 273.498693,2828.97237 L273.498693,2828.97237 Z M201,2780 L264,2780 L264,2829 L201,2829 L201,2780 Z" id="Step1"></path>
        </g>
    </g>
</svg>