<?xml version="1.0" encoding="UTF-8"?>
<svg width="101px" height="82px" viewBox="0 0 101 82" version="1.1" xmlns="http://www.w3.org/2000/svg" xmlns:xlink="http://www.w3.org/1999/xlink">
    <!-- Generator: Sketch 52.5 (67469) - http://www.bohemiancoding.com/sketch -->
    <title>Step3</title>
    <desc>Created with Sketch.</desc>
    <g id="Page-1" stroke="none" stroke-width="1" fill="none" fill-rule="evenodd">
        <g id="Desktop-HD-Copy-3" transform="translate(-180.000000, -3173.000000)" fill="#5B5C59">
            <path d="M230.498956,3214.91892 C241.959467,3214.91892 251.28459,3205.51512 251.28459,3193.95544 C251.28459,3182.40179 241.959467,3173 230.498956,3173 C219.044427,3173 209.725286,3182.40179 209.725286,3193.95544 C209.725286,3205.51512 219.044427,3214.91892 230.498956,3214.91892 L230.498956,3214.91892 Z M230.498956,3176.01662 C240.310573,3176.01662 248.293851,3184.06495 248.293851,3193.95544 C248.293851,3203.85196 240.310573,3211.9023 230.498956,3211.9023 C220.693321,3211.9023 212.716024,3203.85196 212.716024,3193.95544 C212.716024,3184.06495 220.693321,3176.01662 230.498956,3176.01662 L230.498956,3176.01662 Z M261.843891,3207.81981 C259.000696,3207.81981 256.336945,3206.85852 254.137755,3205.0405 C253.501724,3204.51159 252.556651,3204.6041 252.034269,3205.24965 C251.509892,3205.8932 251.603602,3206.84444 252.241626,3207.37335 C254.941267,3209.60565 258.350709,3210.83643 261.843891,3210.83643 C270.219953,3210.83643 277.032856,3203.96659 277.032856,3195.52207 C277.032856,3187.07956 270.219953,3180.21173 261.843891,3180.21173 C258.346721,3180.21173 254.937279,3181.4405 252.239633,3183.67279 C251.603602,3184.1997 251.509892,3185.15094 252.034269,3185.79448 C252.556651,3186.43803 253.501724,3186.53255 254.139749,3186.00564 C256.301056,3184.21377 259.038579,3183.22835 261.843891,3183.22835 C268.569066,3183.22835 274.042117,3188.74272 274.042117,3195.52207 C274.042117,3202.30342 268.569066,3207.81981 261.843891,3207.81981 L261.843891,3207.81981 Z M252.000374,3225.86522 C246.5991,3216.7852 235.260212,3217.92146 234.939206,3217.96973 L225.701812,3217.96973 C225.295071,3217.96168 216.171324,3217.72035 210.809927,3225.49317 C207.837133,3229.79286 203.470654,3246.29175 201.935408,3253.15757 C201.751976,3253.97205 202.258408,3254.7785 203.063914,3254.9615 C203.869419,3255.14853 204.668943,3254.63571 204.850382,3253.82122 C206.465381,3246.61151 210.724192,3230.89292 213.264326,3227.21868 C217.674669,3220.82345 225.536324,3221.00042 225.649972,3220.98634 L235.098712,3220.9783 C235.198404,3220.96623 245.089773,3220.00695 249.478184,3227.48615 C249.512079,3227.54447 249.549962,3227.60078 249.591832,3227.65508 C252.285491,3231.08397 256.795525,3246.51699 258.456381,3253.82726 C258.615887,3254.5251 259.23198,3254.9977 259.913868,3254.9977 C260.023528,3254.9977 260.135183,3254.98564 260.248831,3254.9615 C261.052343,3254.77447 261.55678,3253.96602 261.371355,3253.15153 C260.067393,3247.41795 255.445704,3230.38814 252.000374,3225.86522 L252.000374,3225.86522 Z M199.150034,3210.83643 C202.64521,3210.83643 206.05864,3209.60565 208.75828,3207.37335 C209.396304,3206.84444 209.490014,3205.8932 208.965638,3205.24965 C208.441262,3204.6041 207.500176,3204.51159 206.862152,3205.0405 C204.662962,3206.85852 201.997217,3207.81981 199.150034,3207.81981 C192.424859,3207.81981 186.953801,3202.30342 186.953801,3195.52207 C186.953801,3188.74272 192.424859,3183.22835 199.150034,3183.22835 C201.997217,3183.22835 204.660968,3184.18763 206.854177,3186.00564 C207.494195,3186.53255 208.437274,3186.43803 208.959657,3185.79448 C209.484033,3185.15094 209.390323,3184.1997 208.752299,3183.67279 C206.056646,3181.4405 202.64521,3180.21173 199.150034,3180.21173 C190.775965,3180.21173 183.963063,3187.07956 183.963063,3195.52207 C183.963063,3203.96659 190.775965,3210.83643 199.150034,3210.83643 L199.150034,3210.83643 Z M280.964681,3232.02113 C279.371614,3224.77321 277.762596,3219.93857 276.183486,3217.64795 C272.25565,3211.94252 265.5225,3212.1195 265.29321,3212.12553 L258.865116,3212.13559 C258.540122,3212.09134 250.822023,3211.31909 246.686828,3217.22161 C246.210304,3217.90135 246.371803,3218.84455 247.045717,3219.32318 C247.717636,3219.80182 248.65274,3219.64294 249.129264,3218.96119 C252.233651,3214.52676 258.478313,3215.12204 258.701622,3215.14215 L265.347043,3215.14215 C265.398883,3215.10394 270.71841,3214.99735 273.729087,3219.36944 C274.660203,3220.72088 276.165542,3224.12765 278.043726,3232.67272 C278.199244,3233.37459 278.81733,3233.85524 279.503206,3233.85524 C279.610873,3233.85524 279.718539,3233.84317 279.826206,3233.81904 C280.633706,3233.63804 281.142131,3232.83361 280.964681,3232.02113 L280.964681,3232.02113 Z M212.229531,3219.52831 C212.652222,3220.24828 213.567388,3220.48559 214.27719,3220.05723 C214.988986,3219.63289 215.224257,3218.70779 214.80356,3217.99185 C210.84781,3211.25675 202.485704,3212.09537 202.294297,3212.12553 L195.758536,3212.12553 C195.487376,3212.12553 188.742263,3211.93649 184.812433,3217.64795 C183.225347,3219.95064 181.618324,3224.78728 180.035226,3232.02113 C179.857776,3232.83562 180.368195,3233.64005 181.173701,3233.81904 C181.283361,3233.84317 181.391028,3233.85524 181.4967,3233.85524 C182.182576,3233.85524 182.802656,3233.37459 182.956181,3232.67071 C184.411674,3226.01605 185.942932,3221.29203 187.268826,3219.36944 C190.249595,3215.03556 195.427561,3215.14215 195.706697,3215.14215 L202.451809,3215.13411 C202.521593,3215.12606 209.266706,3214.48252 212.229531,3219.52831 L212.229531,3219.52831 Z" id="Step3"></path>
        </g>
    </g>
</svg>