<?xml version="1.0" encoding="UTF-8"?>
<svg width="56px" height="45px" viewBox="0 0 56 45" version="1.1" xmlns="http://www.w3.org/2000/svg" xmlns:xlink="http://www.w3.org/1999/xlink">
    <!-- Generator: Sketch 52.5 (67469) - http://www.bohemiancoding.com/sketch -->
    <title>Training</title>
    <desc>Created with Sketch.</desc>
    <g id="Page-1" stroke="none" stroke-width="1" fill="none" fill-rule="evenodd">
        <g id="Desktop-HD-Copy-3" transform="translate(-950.000000, -1726.000000)" fill="#5B5C59">
            <path d="M968.02715,1748.05169 C965.232064,1748.05169 962.95949,1750.31215 962.95949,1753.08966 C962.95949,1755.86816 965.232064,1758.12863 968.02715,1758.12863 C970.823239,1758.12863 973.098822,1755.86816 973.098822,1753.08966 C973.098822,1750.31215 970.823239,1748.05169 968.02715,1748.05169 L968.02715,1748.05169 Z M968.02715,1756.63427 C966.062466,1756.63427 964.463842,1755.04428 964.463842,1753.08966 C964.463842,1751.13604 966.062466,1749.54605 968.02715,1749.54605 C969.993839,1749.54605 971.59447,1751.13604 971.59447,1753.08966 C971.59447,1755.04428 969.993839,1756.63427 968.02715,1756.63427 L968.02715,1756.63427 Z M994.235968,1734.205 C992.301372,1734.205 990.729826,1735.7671 990.729826,1737.68685 C990.729826,1739.60759 992.301372,1741.16969 994.235968,1741.16969 C996.167556,1741.16969 997.739102,1739.60759 997.739102,1737.68685 C997.739102,1735.7671 996.167556,1734.205 994.235968,1734.205 L994.235968,1734.205 Z M994.235968,1739.67534 C993.130771,1739.67534 992.234177,1738.78371 992.234177,1737.68685 C992.234177,1736.59099 993.130771,1735.69936 994.235968,1735.69936 C995.338157,1735.69936 996.235753,1736.59099 996.235753,1737.68685 C996.235753,1738.78371 995.338157,1739.67534 994.235968,1739.67534 L994.235968,1739.67534 Z M1004.61299,1735.45229 L1003.11164,1735.45229 C1003.08156,1735.44731 1003.02439,1735.40447 1002.98628,1735.30983 L1002.08869,1733.148 C1002.07966,1733.1211 1002.08668,1733.05634 1002.10373,1733.03343 L1003.15778,1731.9824 C1003.42455,1731.72238 1003.57097,1731.37569 1003.57097,1731.00509 C1003.57097,1730.63449 1003.42455,1730.28681 1003.1638,1730.03376 L1001.93624,1728.80441 C1001.40671,1728.29632 1000.50109,1728.30031 999.984598,1728.81337 L998.836276,1729.88931 L996.558688,1728.96779 C996.531609,1728.95384 996.489487,1728.89805 996.486479,1728.87315 L996.486479,1727.3768 C996.486479,1726.61767 995.863677,1726 995.099466,1726 L993.369462,1726 C992.607257,1726 991.987464,1726.61767 991.987464,1727.3768 L991.988467,1728.86518 C991.981446,1728.89606 991.936316,1728.95384 991.844049,1728.9907 L989.667753,1729.88532 L989.552419,1729.87436 L988.485333,1728.81437 C987.961818,1728.29832 987.055195,1728.29632 986.527669,1728.81536 L985.300118,1730.03277 C984.764569,1730.56974 984.764569,1731.44144 985.303127,1731.97841 L986.364196,1733.03044 C986.381246,1733.05435 986.391275,1733.11911 986.347147,1733.21773 L985.458577,1735.37757 C985.444536,1735.40447 985.386368,1735.44731 985.364304,1735.45229 L983.85594,1735.45229 C983.09173,1735.45229 982.468928,1736.06996 982.468928,1736.82909 L982.468928,1738.5466 C982.468928,1739.30573 983.09173,1739.9234 983.85594,1739.9234 L985.356281,1739.9224 C985.386368,1739.92838 985.444536,1739.97022 985.481643,1740.06387 L986.380243,1742.2267 C986.391275,1742.25459 986.381246,1742.31935 986.368208,1742.33927 L985.300118,1743.39728 C984.763566,1743.93624 984.763566,1744.80795 985.303127,1745.34293 L986.531681,1746.56631 C987.057201,1747.07538 987.961818,1747.07638 988.486335,1746.55734 L989.632652,1745.48539 L991.909237,1746.40591 C991.938322,1746.41986 991.981446,1746.47764 991.987464,1746.50155 L991.987464,1747.9979 C991.987464,1748.75603 992.607257,1749.3737 993.369462,1749.3737 L995.099466,1749.3737 C995.863677,1749.3737 996.486479,1748.75603 996.486479,1747.9979 L996.486479,1746.50653 C996.489487,1746.47565 996.531609,1746.41986 996.625882,1746.383 L998.804184,1745.48937 L998.917511,1745.50033 L999.982592,1746.55734 C1000.50109,1747.07638 1001.4027,1747.08734 1001.94627,1746.55834 L1003.15577,1745.3489 C1003.42254,1745.09088 1003.56897,1744.74319 1003.57097,1744.37259 C1003.57198,1744.001 1003.42555,1743.65231 1003.16179,1743.39628 L1002.10373,1742.34625 C1002.08668,1742.32134 1002.07866,1742.2536 1002.12178,1742.15597 L1003.01135,1739.99911 C1003.02439,1739.97022 1003.08156,1739.92739 1003.10663,1739.9234 L1004.61299,1739.9234 C1005.3772,1739.9234 1006,1739.30573 1006,1738.5466 L1006,1736.82909 C1006,1736.06996 1005.3772,1735.45229 1004.61299,1735.45229 L1004.61299,1735.45229 Z M1004.49465,1738.42905 L1003.10663,1738.42905 C1002.42566,1738.42905 1001.76575,1738.9172 1001.59726,1739.49502 L1000.76586,1741.51339 C1000.43891,1742.10715 1000.55324,1742.91709 1001.03564,1743.39628 L1002.01447,1744.3696 L1000.96443,1745.41964 L999.98159,1744.44333 C999.690748,1744.15541 999.273541,1743.99103 998.839285,1743.99103 C998.568502,1743.99103 998.307747,1744.05579 998.16333,1744.14047 L996.12744,1744.97432 C995.473548,1745.1646 994.982127,1745.82112 994.982127,1746.50155 L994.982127,1747.87934 L993.491816,1747.87934 L993.491816,1746.50155 C993.491816,1745.82411 992.997385,1745.16759 992.415703,1745.00122 L990.383825,1744.17733 C989.801139,1743.85654 988.95469,1743.97808 988.486335,1744.44432 L987.505498,1745.42063 L986.449443,1744.3696 L987.429278,1743.39728 C987.914682,1742.91908 988.032021,1742.10715 987.738171,1741.58811 L986.898743,1739.56974 C986.706186,1738.91919 986.046277,1738.42905 985.364304,1738.42905 L983.97328,1738.42905 L983.97328,1736.94665 L985.364304,1736.94665 C986.04728,1736.94665 986.706186,1736.4555 986.872667,1735.87868 L987.701064,1733.86329 C988.034027,1733.26754 987.91769,1732.45462 987.431283,1731.97742 L986.449443,1731.00509 L987.508507,1729.95605 L988.488341,1730.93336 C988.780186,1731.21928 989.19639,1731.38366 989.634657,1731.38366 C989.903435,1731.38366 990.162183,1731.3199 990.308607,1731.23423 L992.343494,1730.39838 C992.997385,1730.20511 993.491816,1729.54959 993.491816,1728.87315 L993.491816,1727.49435 L994.982127,1727.49435 L994.982127,1728.87315 C994.982127,1729.55258 995.473548,1730.2081 996.053225,1730.37348 L998.087109,1731.19936 C998.669795,1731.51716 999.509223,1731.39661 999.98159,1730.93137 L1000.96443,1729.95406 L1002.01447,1731.00509 L1001.04366,1731.97343 C1000.55525,1732.44963 1000.4359,1733.26157 1000.73076,1733.78559 L1001.57119,1735.80795 C1001.76575,1736.45749 1002.42566,1736.94665 1003.10663,1736.94665 L1004.49465,1736.94665 L1004.49465,1738.42905 L1004.49465,1738.42905 Z M984.307246,1750.0083 L981.948422,1750.0083 C981.732798,1750.0083 981.450983,1749.79909 981.364734,1749.52313 L979.967692,1746.16283 C979.866399,1745.97853 979.916544,1745.63881 980.066979,1745.48937 L981.732798,1743.83263 C982.06175,1743.50587 982.244278,1743.07051 982.244278,1742.60726 C982.244278,1742.14401 982.063756,1741.70766 981.733801,1741.38089 L979.81124,1739.46414 C979.151331,1738.82156 978.009026,1738.82057 977.349117,1739.46912 L975.680289,1741.13084 C975.590028,1741.2215 975.413518,1741.28127 975.24503,1741.28127 C975.148752,1741.28127 975.060496,1741.26234 974.92009,1741.19261 L971.541316,1739.81481 C971.337727,1739.75504 971.132132,1739.47609 971.132132,1739.2609 L971.132132,1736.91477 C971.132132,1735.95738 970.346861,1735.17833 969.383072,1735.17833 L966.670225,1735.17833 C965.707439,1735.17833 964.926179,1735.95738 964.926179,1736.91477 L964.926179,1739.2609 C964.926179,1739.47111 964.712561,1739.75504 964.437766,1739.83972 L961.053978,1741.22947 C960.883484,1741.32311 960.519431,1741.2723 960.379025,1741.13283 L958.705183,1739.47011 C958.045274,1738.81957 956.894946,1738.82256 956.241054,1739.47211 L954.320499,1741.37791 C953.988538,1741.70567 953.804004,1742.14302 953.804004,1742.60726 C953.80601,1743.07151 953.988538,1743.50686 954.31749,1743.83164 L955.988323,1745.49037 C956.138759,1745.63981 956.188904,1745.97753 956.0495,1746.23954 L954.6665,1749.59287 C954.605323,1749.79511 954.319496,1750.0083 954.109889,1750.0083 L951.743042,1750.0083 C950.782263,1750.0083 950,1750.78636 950,1751.74275 L950,1754.43857 C950,1755.39495 950.782263,1756.17301 951.743042,1756.17301 L954.109889,1756.17301 C954.323507,1756.17301 954.603317,1756.38123 954.691572,1756.65519 L956.086608,1760.01649 C956.187901,1760.2008 956.138759,1760.53952 955.988323,1760.68895 L954.320499,1762.3447 C953.988538,1762.67246 953.804004,1763.10981 953.804004,1763.57605 C953.80601,1764.04129 953.988538,1764.47764 954.31749,1764.79942 L956.241054,1766.71419 C956.902969,1767.35975 958.045274,1767.35676 958.707189,1766.70622 L960.379025,1765.04649 C960.46728,1764.95783 960.639779,1764.89805 960.806261,1764.89805 C960.902539,1764.89805 960.990795,1764.91798 961.132204,1764.98971 L964.510978,1766.36451 C964.712561,1766.42429 964.926179,1766.70821 964.926179,1766.91742 L964.926179,1769.26456 C964.926179,1770.22094 965.707439,1771 966.670225,1771 L969.383072,1771 C970.346861,1771 971.132132,1770.22094 971.132132,1769.26456 L971.132132,1766.91742 C971.132132,1766.70323 971.337727,1766.42429 971.612522,1766.33961 L974.994305,1764.95384 C975.173824,1764.85721 975.539883,1764.90801 975.678284,1765.04549 L977.349117,1766.70921 C978.005015,1767.36174 979.153336,1767.36374 979.816254,1766.70921 L981.730793,1764.80241 C982.06175,1764.47664 982.244278,1764.04029 982.244278,1763.57605 C982.244278,1763.1108 982.063756,1762.67346 981.732798,1762.34669 L980.064974,1760.69294 C979.914538,1760.54151 979.866399,1760.2008 980.0048,1759.93978 L981.389806,1756.58645 C981.450983,1756.38123 981.732798,1756.17301 981.948422,1756.17301 L984.307246,1756.17301 C985.27304,1756.17301 986.057309,1755.39495 986.057309,1754.43857 L986.057309,1751.74275 C986.057309,1750.78636 985.27304,1750.0083 984.307246,1750.0083 L984.307246,1750.0083 Z M984.552957,1754.43857 C984.552957,1754.56808 984.441635,1754.67866 984.307246,1754.67866 L981.948422,1754.67866 C981.060855,1754.67866 980.201368,1755.31426 979.97371,1756.08833 L978.64988,1759.29422 C978.230667,1760.05136 978.381102,1761.1263 978.996884,1761.74596 L980.670726,1763.40469 C980.7309,1763.46447 980.739926,1763.5362 980.739926,1763.57405 C980.739926,1763.61191 980.7309,1763.68264 980.66872,1763.74341 L978.754182,1765.65121 C978.631828,1765.77075 978.533543,1765.77275 978.414198,1765.6532 L976.740356,1763.9865 C976.365271,1763.61689 975.820696,1763.4037 975.248039,1763.4037 C974.897024,1763.4037 974.560049,1763.48738 974.348437,1763.60793 L971.115083,1764.93192 C970.279666,1765.176 969.62778,1766.0487 969.62778,1766.91742 L969.62778,1769.26456 C969.62778,1769.39506 969.514453,1769.50664 969.383072,1769.50664 L966.670225,1769.50664 C966.539847,1769.50664 966.430531,1769.39506 966.430531,1769.26456 L966.430531,1766.91742 C966.430531,1766.0497 965.774634,1765.177 965.010423,1764.95683 L961.781081,1763.64479 C961.494251,1763.48738 961.157276,1763.4037 960.806261,1763.4037 C960.232601,1763.4037 959.689029,1763.61689 959.313944,1763.98849 L957.645116,1765.64722 C957.523765,1765.76976 957.417458,1765.76677 957.301121,1765.6532 L955.378559,1763.73943 C955.319388,1763.68165 955.310362,1763.61191 955.308356,1763.57405 C955.308356,1763.53719 955.319388,1763.46646 955.382571,1763.4037 L957.054407,1761.74397 C957.681221,1761.11933 957.831656,1760.06531 957.438519,1759.37193 L956.107669,1756.15807 C955.857946,1755.3282 954.979405,1754.67866 954.109889,1754.67866 L951.743042,1754.67866 C951.614671,1754.67866 951.504352,1754.56808 951.504352,1754.43857 L951.504352,1751.74275 C951.504352,1751.61324 951.614671,1751.50266 951.743042,1751.50266 L954.109889,1751.50266 C954.979405,1751.50266 955.857946,1750.85211 956.082596,1750.08999 L957.402414,1746.8851 C957.825638,1746.12597 957.672195,1745.04804 957.050396,1744.43336 L955.379562,1742.77264 C955.322397,1742.71585 955.310362,1742.6501 955.308356,1742.60726 C955.308356,1742.5694 955.319388,1742.49867 955.382571,1742.4379 L957.307139,1740.52911 C957.421469,1740.41156 957.523765,1740.40857 957.64311,1740.52911 L959.316953,1742.19083 C959.690032,1742.56343 960.234607,1742.77563 960.80927,1742.77563 C961.159282,1742.77563 961.496257,1742.69294 961.703858,1742.57339 L964.938214,1741.2474 C965.775637,1741.00133 966.430531,1740.12863 966.430531,1739.2609 L966.430531,1736.91477 C966.430531,1736.78127 966.536839,1736.67268 966.670225,1736.67268 L969.383072,1736.67268 C969.514453,1736.67268 969.62778,1736.78326 969.62778,1736.91477 L969.62778,1739.2609 C969.62778,1740.12962 970.279666,1741.00232 971.041871,1741.2215 L974.272216,1742.53752 C975.027401,1742.94797 976.130592,1742.79157 976.743365,1742.18984 L978.410187,1740.52812 C978.534546,1740.40757 978.641857,1740.41654 978.75017,1740.52513 L980.66872,1742.4379 C980.7309,1742.49768 980.739926,1742.56841 980.739926,1742.60726 C980.739926,1742.64313 980.7309,1742.71386 980.66872,1742.77463 L979.003904,1744.43237 C978.383108,1745.04605 978.228661,1746.12298 978.614778,1746.8064 L979.948637,1750.02026 C980.201368,1750.86606 981.060855,1751.50266 981.948422,1751.50266 L984.307246,1751.50266 C984.441635,1751.50266 984.552957,1751.61324 984.552957,1751.74275 L984.552957,1754.43857 L984.552957,1754.43857 Z" id="Training"></path>
        </g>
    </g>
</svg>