<?xml version="1.0" encoding="UTF-8"?>
<svg width="40px" height="55px" viewBox="0 0 40 55" version="1.1" xmlns="http://www.w3.org/2000/svg" xmlns:xlink="http://www.w3.org/1999/xlink">
    <!-- Generator: Sketch 52.5 (67469) - http://www.bohemiancoding.com/sketch -->
    <title>Wellness</title>
    <desc>Created with Sketch.</desc>
    <g id="Page-1" stroke="none" stroke-width="1" fill="none" fill-rule="evenodd">
        <g id="Desktop-HD-Copy-3" transform="translate(-444.000000, -1715.000000)" fill="#5B5C59">
            <path d="M464.927722,1730.19836 C465.354594,1730.64463 465.757473,1731.06682 465.93442,1731.52512 C466.427272,1732.85889 466.569229,1734.81342 465.347596,1735.93359 C465.041687,1736.21439 465.020694,1736.68973 465.29961,1736.9966 C465.447566,1737.15906 465.650505,1737.2413 465.853444,1737.2413 C466.03339,1737.2413 466.215335,1737.17711 466.359292,1737.04474 C468.128761,1735.42215 468.026792,1732.85889 467.336999,1730.99261 C467.049085,1730.2445 466.497251,1729.66686 466.010397,1729.15742 C465.605518,1728.73322 465.222633,1728.33108 465.064681,1727.91791 C464.608817,1726.71651 465.764471,1725.25437 467.083075,1723.85341 C467.36699,1723.55155 467.352994,1723.0742 467.052084,1722.7894 C466.751175,1722.50459 466.276317,1722.51863 465.992402,1722.82049 C464.879736,1724.00383 462.809357,1726.20506 463.664101,1728.45443 C463.930021,1729.1524 464.436869,1729.68391 464.927722,1730.19836 L464.927722,1730.19836 Z M452.923323,1730.42501 C453.250225,1730.85222 453.559132,1731.25536 453.69909,1731.70062 C454.137959,1733.13267 454.187944,1735.04508 453.305208,1736.08703 C453.036289,1736.40292 453.075277,1736.87727 453.390183,1737.14603 C453.53214,1737.26637 453.704089,1737.32553 453.876037,1737.32553 C454.087974,1737.32553 454.29991,1737.23528 454.447866,1737.05978 C455.782465,1735.48533 455.676497,1733.03038 455.130661,1731.25235 C454.909727,1730.55036 454.485854,1729.9978 454.112966,1729.50942 C453.796061,1729.09625 453.497151,1728.70514 453.36819,1728.29297 C452.946316,1726.90906 454.197941,1725.16312 454.869739,1724.22446 C455.111667,1723.88751 455.03469,1723.41717 454.69879,1723.17449 C454.364891,1722.93481 453.895031,1723.00902 453.653104,1723.34698 C452.828351,1724.49623 451.294812,1726.63729 451.935619,1728.73823 C452.144557,1729.41013 452.540438,1729.92559 452.923323,1730.42501 L452.923323,1730.42501 Z M459.156453,1725.44491 C458.80056,1726.24117 458.43167,1727.0645 458.249725,1728.10243 C457.785864,1730.80308 457.741877,1734.51759 459.010497,1736.84317 C459.147456,1737.09288 459.404379,1737.23327 459.669299,1737.23327 C459.791263,1737.23327 459.914226,1737.20419 460.028192,1737.14101 C460.392082,1736.94145 460.525042,1736.48415 460.326102,1736.12012 C459.241428,1734.1325 459.326402,1730.69678 459.727282,1728.36016 C459.876237,1727.50976 460.191143,1726.80677 460.525042,1726.06266 C460.872938,1725.28346 461.23383,1724.47918 461.39878,1723.50041 C461.942617,1720.39964 460.426072,1717.16849 459.611317,1715.43258 C459.43437,1715.05651 458.987504,1714.89405 458.613616,1715.07256 C458.238728,1715.24906 458.077777,1715.69733 458.253724,1716.07339 C458.9985,1717.65888 460.383085,1720.60923 459.920224,1723.24469 C459.787264,1724.03793 459.481356,1724.72187 459.156453,1725.44491 L459.156453,1725.44491 Z M448.815555,1767.72657 L448.818554,1767.72657 L471.137859,1767.70852 C473.778067,1767.70852 475.930421,1765.54539 475.936419,1762.88386 L475.926422,1739.76845 C475.926422,1739.35327 475.590523,1739.01632 475.176647,1739.01632 L444.749775,1739.01632 C444.550835,1739.01632 444.359892,1739.09554 444.219934,1739.23594 C444.078976,1739.37734 444,1739.56888 444,1739.76845 L444.009997,1762.8979 C444.003999,1765.55342 446.160352,1767.71955 448.815555,1767.72657 L448.815555,1767.72657 Z M474.427872,1740.52058 L474.436869,1762.88186 C474.43287,1764.71504 472.953314,1766.20426 471.126862,1766.20426 L448.819554,1766.22231 C446.990103,1766.2173 445.505548,1764.72708 445.509547,1762.89991 L445.49955,1740.52058 L474.427872,1740.52058 L474.427872,1740.52058 Z M483.998001,1744.25314 C483.909027,1742.47711 482.470459,1742.08801 481.749675,1741.89446 L477.130061,1740.84249 C476.725182,1740.74822 476.325302,1741.00495 476.23333,1741.40909 C476.141358,1741.81524 476.395281,1742.21738 476.798161,1742.30964 L481.388783,1743.3546 C482.264521,1743.59026 482.472458,1743.77278 482.49945,1744.29024 L482.50045,1752.7542 C482.49945,1753.20146 482.352494,1753.38398 481.39878,1753.69385 L476.837149,1754.47105 C476.429271,1754.54025 476.154354,1754.92835 476.224333,1755.33751 C476.286314,1755.70455 476.603219,1755.96428 476.962111,1755.96428 C477.003099,1755.96428 477.046086,1755.96127 477.088074,1755.95325 L481.702689,1755.16803 C481.737679,1755.16201 481.772668,1755.15399 481.805658,1755.14296 C482.570429,1754.89826 483.995001,1754.43997 484,1752.7562 L483.998001,1744.25314 L483.998001,1744.25314 Z M475.555533,1768.47669 L475.554534,1768.47669 L444.768769,1768.49574 C444.354894,1768.49574 444.018994,1768.8327 444.019994,1769.24787 C444.019994,1769.66305 444.355893,1770 444.769769,1770 L475.555533,1769.98095 C475.969409,1769.98095 476.305308,1769.64399 476.305308,1769.22882 C476.304309,1768.81364 475.969409,1768.47669 475.555533,1768.47669 L475.555533,1768.47669 Z" id="Wellness"></path>
        </g>
    </g>
</svg>