<?xml version="1.0" encoding="UTF-8"?>
<svg width="69px" height="69px" viewBox="0 0 69 69" version="1.1" xmlns="http://www.w3.org/2000/svg" xmlns:xlink="http://www.w3.org/1999/xlink">
    <!-- Generator: Sketch 52.6 (67491) - http://www.bohemiancoding.com/sketch -->
    <title>Group 13</title>
    <desc>Created with Sketch.</desc>
    <g id="Page-1" stroke="none" stroke-width="1" fill="none" fill-rule="evenodd">
        <g id="Desktop-HD-Copy" transform="translate(-1192.000000, -1717.000000)">
            <g id="Group-13" transform="translate(1192.000000, 1717.000000)">
                <circle id="Oval-Copy-4" fill="#292F55" cx="34.5" cy="34.5" r="34.5"></circle>
                <path d="M26.3612584,28.2529202 L19.2942835,28.2561622 C19.2942835,28.2561622 19.1945202,28.2456257 19.0306812,28.2456257 C18.5050988,28.2456257 17.5147652,28.3582855 16.7985781,29.1177256 C16.2454188,29.7053395 15.9939827,30.5328618 16.0556251,31.5767881 C16.228386,34.5172887 17.0410922,46.0345193 17.0467698,46.108275 C17.0467698,47.3653633 17.8067555,49.744186 20.6836704,49.744186 L26.6175609,49.7433755 C26.6289161,49.744186 26.6556819,49.744186 26.6654149,49.744186 C27.2972493,49.744186 28.3678802,49.3219146 28.3678802,47.7373836 L28.3678802,30.8473365 C28.423845,30.5579874 28.5463186,29.6380678 28.0061367,28.9507623 C27.7547007,28.6322351 27.2664281,28.2529202 26.3612584,28.2529202 L26.3612584,28.2529202 Z M27.1682869,30.639848 C27.1569318,30.6860466 27.1512542,30.7346767 27.1512542,30.7824964 L27.1512542,47.7373836 C27.1512542,48.4246891 26.8462866,48.5284333 26.6654149,48.5284333 L26.6654149,49.1363097 L26.6491932,48.5284333 L20.6836704,48.5284333 C18.352615,48.5284333 18.265829,46.3530465 18.2625847,46.0653184 C18.2544738,45.9494166 17.4433898,34.4394805 17.27144,31.505464 C17.2300747,30.8084324 17.3695812,30.2856587 17.6842818,29.951732 C18.101179,29.5083875 18.7646457,29.4613784 19.0306812,29.4613784 C19.1069231,29.4613784 19.1563992,29.4654309 19.2293968,29.4686729 L26.3612584,29.4686729 C26.695425,29.4686729 26.9249617,29.5464811 27.0482465,29.7004764 C27.2607505,29.967942 27.2047857,30.4826107 27.1682869,30.639848 L27.1682869,30.639848 Z M50.5299392,32.0031121 C50.4463976,31.965829 50.3612338,31.9325984 50.276881,31.9001783 C50.8965492,31.511948 51.512162,30.8635465 51.512162,29.7458645 C51.512162,28.9823718 51.2801919,28.376927 50.8219295,27.947361 C50.1170975,27.2803181 49.1300083,27.2292564 48.8445067,27.2292564 L43.4507981,27.2292564 C43.36239,27.2292564 43.1701631,27.1328067 43.1433973,27.1230807 C42.9706364,26.1723621 42.7727319,25.0952052 43.7022342,23.2505031 C44.1621188,22.3370676 44.1426528,20.4866919 43.6560024,18.6492844 C43.2001732,16.910758 42.3801673,15.366752 41.3419797,14.3017527 C41.3217026,14.2798691 41.2989923,14.2612276 41.277093,14.242586 C41.0467452,14.0658967 40.2178173,13.5025979 39.2631715,13.6703718 C38.6394479,13.7797895 38.1162987,14.1623464 37.7050791,14.8066953 C37.6434367,14.904766 37.6101823,15.0174258 37.6101823,15.1333275 L37.6036936,19.4816697 C37.5461066,20.0392949 37.3400913,21.173187 36.9256274,21.8937231 C36.6133601,22.4391908 35.1388094,24.8317921 33.7607776,26.9463913 C32.4670987,28.9313102 31.9861259,29.5440496 31.8117428,29.735328 C31.2464173,30.3634669 30.0865671,30.4274966 29.4449997,30.4031815 C29.1270548,30.4015605 28.8277648,30.6560581 28.8172207,30.9916058 C28.8066766,31.3271536 29.07109,31.6075872 29.4068788,31.6189342 C30.4458774,31.6497333 31.8660854,31.4916854 32.7152904,30.5506928 C33.0632454,30.168136 33.7575333,29.1785133 34.7803102,27.6093818 C36.0780446,25.6163579 37.617482,23.1337908 37.9824698,22.4983574 C38.6029491,21.417148 38.7838208,19.8982676 38.8000425,19.6842952 C38.8235639,19.5870349 38.8268083,19.4995007 38.8268083,19.4330396 L38.8268083,15.3213639 C39.0230906,15.0579509 39.2364057,14.909629 39.4732422,14.8674829 C39.9120387,14.7912958 40.3711122,15.0887499 40.5033189,15.1827681 C41.3809118,16.0994457 42.0808773,17.4375842 42.4799306,18.958896 C42.9308933,20.6666233 42.8870948,22.1636202 42.6161927,22.7042249 C41.5033855,24.9128423 41.7604991,26.3166314 41.9470484,27.3419162 C42.0776329,28.0519158 42.9195381,28.4450092 43.4507981,28.4450092 L48.8445067,28.4450092 C49.1170309,28.4450092 49.6645126,28.5260593 49.9881351,28.832429 C50.1949615,29.0261389 50.295536,29.3252141 50.295536,29.7458645 C50.295536,30.61067 49.6515353,30.9267657 48.8745168,31.2242198 L48.7228441,31.284197 C48.5565719,31.3506581 48.0480222,31.5532836 48.0828988,32.0647102 C48.1193976,32.5793789 48.5971261,32.6969016 49.0586329,32.8095614 C49.3481899,32.8808855 49.7083112,32.9692302 50.0343669,33.1134995 C50.4561306,33.3023465 51.0149675,34.1857934 50.9249371,35.0189893 C50.8105743,36.0491371 49.7569762,36.475461 48.8915496,36.6529609 C48.3473122,36.7664312 48.1477855,37.1206205 48.1404858,37.4132116 C48.1364304,37.6466361 48.2353826,38.0656656 48.9669804,38.252081 C49.1040536,38.2917956 49.5323059,38.7262245 49.5574495,39.2992493 C49.590704,40.077331 48.8242296,40.5409381 48.1696848,40.7946251 C48.1299417,40.8108352 48.0934429,40.8221822 48.0585663,40.8327187 C47.862284,40.8959379 47.4518755,41.0272391 47.3367016,41.5637913 C47.2101724,42.1206061 47.6992561,42.3969872 47.8841832,42.5007314 C48.1777957,42.6668843 48.4827632,42.8387107 48.4827632,43.646781 C48.4827632,43.9110046 48.4113878,44.1687441 48.267826,44.4135157 C48.1226419,44.6623397 47.7519766,44.9370998 47.5508277,45.0854217 C47.1842178,45.3585608 46.3593453,45.7005925 45.9465036,45.7873162 L45.8629619,45.8051473 C43.1993621,46.347373 39.8747288,47.0217105 34.9003507,46.9520073 C32.2919045,46.9122927 30.8360088,46.1544736 30.1368544,45.7913688 C29.7272569,45.5782068 29.4312113,45.4258324 29.0897449,45.6009008 C28.8001879,45.7467912 28.7077244,46.0815284 28.8383089,46.3781721 C28.9656491,46.6626582 29.3152263,46.7939595 29.6112719,46.6975098 C29.4693322,46.7607289 29.3387477,46.7461399 29.2884605,46.7283088 C29.3549694,46.7518134 29.448244,46.8036855 29.5747731,46.8693361 C30.3574692,47.2762081 31.9869369,48.1231824 34.8816957,48.16776 C35.1306985,48.171002 35.3732126,48.172623 35.6132935,48.172623 C40.3248804,48.172623 43.5181181,47.5234111 46.1062871,46.9957744 L46.1938842,46.9779434 C46.7551543,46.8587996 47.7503544,46.4527382 48.2759368,46.0612659 C48.6498465,45.7856952 49.0683659,45.4550105 49.3198019,45.0254445 C49.572049,44.5926366 49.7002003,44.128219 49.7002003,43.646781 C49.7002003,42.6336537 49.3335903,42.089807 48.9710358,41.7737113 C50.6175363,41.0013031 50.8105743,39.847959 50.7700201,39.2036101 C50.7327102,38.6022178 50.4512641,37.9959624 50.0603216,37.5793645 C51.6776231,36.9609516 52.0588326,35.8319226 52.1334523,35.1519116 C52.2859361,33.765143 51.4286203,32.4043105 50.5299392,32.0031121 L50.5299392,32.0031121 Z" id="Leadgen" fill="#FFFFFF"></path>
            </g>
        </g>
    </g>
</svg>