<?xml version="1.0" encoding="UTF-8"?>
<svg width="69px" height="69px" viewBox="0 0 69 69" version="1.1" xmlns="http://www.w3.org/2000/svg" xmlns:xlink="http://www.w3.org/1999/xlink">
    <!-- Generator: Sketch 52.6 (67491) - http://www.bohemiancoding.com/sketch -->
    <title>Group 10</title>
    <desc>Created with Sketch.</desc>
    <g id="Page-1" stroke="none" stroke-width="1" fill="none" fill-rule="evenodd">
        <g id="Desktop-HD-Copy" transform="translate(-426.000000, -1717.000000)">
            <g id="Group-10" transform="translate(426.000000, 1717.000000)">
                <circle id="Oval-Copy" fill="#FEC502" cx="34.5" cy="34.5" r="34.5"></circle>
                <path d="M38.4536372,20.2172926 C38.7961274,20.5753407 39.1193677,20.9140784 39.2613367,21.2817818 C39.6567646,22.3519031 39.7706607,23.9200735 38.7905128,24.8188145 C38.5450748,25.0441032 38.5282311,25.4254848 38.7520128,25.6716932 C38.8707213,25.8020388 39.0335446,25.8680162 39.1963678,25.8680162 C39.3407431,25.8680162 39.4867226,25.8165217 39.6022228,25.7103141 C41.0219132,24.4084672 40.9401005,22.3519031 40.3866619,20.8545378 C40.1556614,20.2543043 39.7129105,19.7908533 39.3222952,19.3821152 C38.9974508,19.0417683 38.6902522,18.7191227 38.5635228,18.3876264 C38.1977721,17.4237126 39.1249823,16.2506021 40.1829323,15.1265723 C40.4107245,14.884387 40.3994953,14.5013962 40.1580677,14.272889 C39.9166401,14.0443819 39.5356498,14.0556464 39.3078576,14.2978317 C38.4151371,15.2472627 36.7540191,17.0133653 37.4398018,18.8180888 C37.6531564,19.3780922 38.0598135,19.8045315 38.4536372,20.2172926 L38.4536372,20.2172926 Z M28.822201,20.3991328 C29.0844828,20.7418935 29.332327,21.0653437 29.4446189,21.4225872 C29.7967342,22.5715596 29.8368385,24.1059367 29.1285975,24.9419187 C28.9128366,25.1953685 28.9441179,25.5759455 29.1967747,25.791579 C29.3106708,25.8881313 29.4486294,25.9356029 29.586588,25.9356029 C29.75663,25.9356029 29.926672,25.8631886 30.0453806,25.7223832 C31.116164,24.4591572 31.031143,22.4894902 30.5932046,21.0629299 C30.4159438,20.4997081 30.0758598,20.0563721 29.7766821,19.6645307 C29.5224212,19.3330344 29.2825978,19.0192394 29.1791288,18.6885478 C28.840649,17.5781963 29.8448593,16.1773833 30.3838604,15.4242753 C30.577965,15.1539288 30.5162044,14.7765702 30.2467039,14.5818564 C29.9788075,14.3895564 29.6018276,14.449097 29.407723,14.7202481 C28.7460029,15.6423226 27.5156046,17.360149 28.0297411,19.0457913 C28.1973768,19.584875 28.5150025,19.9984407 28.822201,20.3991328 L28.822201,20.3991328 Z M33.8232007,16.4034766 C33.5376585,17.042331 33.2416891,17.7029097 33.0957097,18.5356733 C32.7235422,20.7024679 32.6882505,23.6827157 33.7060963,25.548589 C33.8159819,25.7489351 34.0221178,25.8615794 34.2346703,25.8615794 C34.3325247,25.8615794 34.4311811,25.8382459 34.5226188,25.787556 C34.8145777,25.6274401 34.921255,25.2605413 34.7616401,24.9684706 C33.8913779,23.3737484 33.9595552,20.6171801 34.2811912,18.7424562 C34.4007019,18.0601532 34.6533586,17.4961268 34.921255,16.8991117 C35.2003806,16.2739356 35.4899333,15.6286443 35.6222773,14.8433522 C36.0586115,12.3555212 34.8418486,9.76309182 34.1881494,8.37032482 C34.0461803,8.06859887 33.6876484,7.93825326 33.3876686,8.08147251 C33.0868867,8.22308256 32.957751,8.58273989 33.098918,8.88446584 C33.6964713,10.1565425 34.807359,12.5236831 34.4359936,14.6381786 C34.3293163,15.2746192 34.0838783,15.8233581 33.8232007,16.4034766 L33.8232007,16.4034766 Z M25.5264339,50.3271288 L25.5288402,50.3271288 L43.4361889,50.312646 C45.5544953,50.312646 47.2813842,48.5771183 47.2861967,46.4417032 L47.2781758,27.8956146 C47.2781758,27.5625092 47.0086753,27.2921627 46.6766121,27.2921627 L22.2643544,27.2921627 C22.1047395,27.2921627 21.9515413,27.3557263 21.8392494,27.4683707 C21.7261554,27.5818197 21.6627907,27.7354987 21.6627907,27.8956146 L21.6708115,46.4529676 C21.665999,48.5835551 23.3960963,50.3214966 25.5264339,50.3271288 L25.5264339,50.3271288 Z M46.0758505,28.4990665 L46.0830693,46.440094 C46.0798609,47.9109074 44.8927752,49.1057422 43.427366,49.1057422 L25.5296423,49.120225 C24.0618268,49.116202 22.8707306,47.9205626 22.873939,46.4545768 L22.8659181,28.4990665 L46.0758505,28.4990665 L46.0758505,28.4990665 Z M53.7542098,31.4937972 C53.6828242,30.0688461 52.528624,29.7566603 51.9503207,29.601372 L48.2438861,28.757344 C47.9190417,28.6817113 47.5982077,28.8876896 47.5244159,29.2119444 C47.4506241,29.5378084 47.6543537,29.860454 47.9775939,29.9344775 L51.660768,30.7728733 C52.3633945,30.9619549 52.5302281,31.1083926 52.5518844,31.5235675 L52.5526865,38.3144129 C52.5518844,38.6732657 52.4339779,38.8197033 51.6687889,39.0683255 L48.0088752,39.6918925 C47.6816246,39.74741 47.4610512,40.0587912 47.5171972,40.3870691 C47.5669264,40.6815536 47.8211874,40.8899457 48.1091359,40.8899457 C48.1420213,40.8899457 48.176511,40.8875318 48.2101986,40.881095 L51.9126227,40.2510912 C51.9406957,40.2462636 51.9687687,40.2398268 51.9952375,40.2309762 C52.6088325,40.0346532 53.7518035,39.6669498 53.755814,38.3160221 L53.7542098,31.4937972 L53.7542098,31.4937972 Z M46.9806023,50.9289715 L46.9798002,50.9289715 L22.279594,50.944259 C21.9475309,50.944259 21.6780303,51.2146054 21.6788324,51.5477109 C21.6788324,51.8808163 21.9483329,52.1511628 22.2803961,52.1511628 L46.9806023,52.1358753 C47.3126655,52.1358753 47.582166,51.8655289 47.582166,51.5324234 C47.581364,51.199318 47.3126655,50.9289715 46.9806023,50.9289715 L46.9806023,50.9289715 Z" id="Wellness" fill="#FFFFFF"></path>
            </g>
        </g>
    </g>
</svg>