<?xml version="1.0" encoding="UTF-8"?>
<svg width="69px" height="69px" viewBox="0 0 69 69" version="1.1" xmlns="http://www.w3.org/2000/svg" xmlns:xlink="http://www.w3.org/1999/xlink">
    <!-- Generator: Sketch 52.6 (67491) - http://www.bohemiancoding.com/sketch -->
    <title>Group 9</title>
    <desc>Created with Sketch.</desc>
    <g id="Page-1" stroke="none" stroke-width="1" fill="none" fill-rule="evenodd">
        <g id="Desktop-HD-Copy" transform="translate(-165.000000, -1719.000000)">
            <g id="Group-9" transform="translate(165.000000, 1719.000000)">
                <circle id="Oval" fill="#ED1C23" cx="34.5" cy="34.5" r="34.5"></circle>
                <path d="M50.6816177,31.4142542 C50.3133126,31.4142542 50.0143982,31.7115722 50.0143982,32.0779105 L50.0143982,47.6145478 L22.1949041,47.6145478 L22.1949041,19.780801 L39.6137809,19.780801 C39.982086,19.780801 40.2810003,19.483483 40.2810003,19.1171447 C40.2810003,18.7508064 39.982086,18.4534884 39.6137809,18.4534884 L21.5276846,18.4534884 C21.1593794,18.4534884 20.8604651,18.7508064 20.8604651,19.1171447 L20.8604651,48.2782041 C20.8604651,48.6445424 21.1593794,48.9418605 21.5276846,48.9418605 L50.6816177,48.9418605 C51.0499229,48.9418605 51.3488372,48.6445424 51.3488372,48.2782041 L51.3488372,32.0779105 C51.3488372,31.7115722 51.0499229,31.4142542 50.6816177,31.4142542 L50.6816177,31.4142542 Z M50.5482724,17.6142319 C48.9341692,16.5303003 47.7904008,16.0465116 46.8381512,16.0465116 C46.0195194,16.0465116 45.3541027,16.4069473 44.8623891,17.1138212 L44.7358976,17.2747925 C44.5737746,17.4786311 44.3038667,17.8180705 44.0099075,18.2134999 L35.8360605,29.9276596 C35.7692516,30.026517 35.7300571,30.1411216 35.7229308,30.2583506 L35.3033709,37.8196264 C35.2908999,38.0374625 35.3906678,38.2474251 35.5679341,38.3795265 C35.6855178,38.466136 35.8271527,38.5116279 35.9705691,38.5116279 C36.0436135,38.5116279 36.1175487,38.4993801 36.1879208,38.4757593 L43.8264057,35.894095 C43.9609143,35.8486031 44.0767164,35.7619936 44.1577779,35.647389 L52.0394472,24.4747577 L52.4394098,23.9174821 C52.7592018,23.464313 53.0104033,23.1143754 53.1475842,22.9254091 L53.2589324,22.7696869 C54.7144758,20.67881 52.7182257,19.0769709 50.5482724,17.6142319 L50.5482724,17.6142319 Z M36.9069767,36.9069767 L37.2273568,31.2906977 C37.7298106,31.5126454 38.3101712,31.9039743 38.5027493,32.4137866 C38.5815313,32.6207153 38.770608,32.7734087 38.9955743,32.8159626 C39.0087046,32.8184658 40.2289498,33.0604389 40.6219843,34.0174842 C40.7103952,34.2327568 40.916979,34.3837814 41.1577017,34.4113163 C41.1655799,34.4113163 41.8501077,34.5122775 42.5232558,35.065478 L36.9069767,36.9069767 L36.9069767,36.9069767 Z M43.7378408,34.5 C43.0118771,33.7699213 42.217072,33.4557554 41.7548513,33.3281255 C41.1916036,32.2829884 40.1598769,31.8269123 39.6127219,31.6510865 C39.1513953,30.7683875 38.2832786,30.261438 37.7093023,30.0052857 L44.8875814,19.5199989 L45.0780128,19.255814 C46.0328517,19.3887989 47.3658713,19.9725049 48.599652,20.8159332 C49.8504195,21.6727493 50.8848284,22.7062837 51.3488372,23.5416794 L43.7378408,34.5 L43.7378408,34.5 Z M51.9078006,22.1775008 L51.8099035,22.3140969 C51.7798474,22.3565181 51.7429214,22.4082719 51.7025603,22.4651163 C51.0954269,21.622632 50.1465126,20.732636 48.9932167,19.9503898 C47.8811406,19.1986868 46.7329972,18.659938 45.7325581,18.3969268 C45.7428631,18.3850489 45.7583205,18.3646867 45.7677667,18.3528088 C45.8596525,18.2365748 45.9206235,18.1585199 45.9352222,18.1356125 C46.1705186,17.7962432 46.4229899,17.6511628 46.7793695,17.6511628 C47.4045366,17.6511628 48.336276,18.0753744 49.62783,18.9492504 C52.4745729,20.8785648 52.356066,21.5301539 51.9078006,22.1775008 L51.9078006,22.1775008 Z" id="Education-Copy" fill="#FFFFFF"></path>
            </g>
        </g>
    </g>
</svg>