<?xml version="1.0" encoding="UTF-8"?>
<svg width="69px" height="69px" viewBox="0 0 69 69" version="1.1" xmlns="http://www.w3.org/2000/svg" xmlns:xlink="http://www.w3.org/1999/xlink">
    <!-- Generator: Sketch 52.6 (67491) - http://www.bohemiancoding.com/sketch -->
    <title>Group 11</title>
    <desc>Created with Sketch.</desc>
    <g id="Page-1" stroke="none" stroke-width="1" fill="none" fill-rule="evenodd">
        <g id="Desktop-HD-Copy" transform="translate(-682.000000, -1717.000000)">
            <g id="Group-11" transform="translate(682.000000, 1717.000000)">
                <circle id="Oval-Copy-2" fill="#009D92" cx="34.5" cy="34.5" r="34.5"></circle>
                <path d="M40.5734953,42.5852233 C40.5120753,42.2549663 40.1977016,42.0364139 39.8663566,42.0987419 C39.5374361,42.1610698 39.3200415,42.477566 39.3814616,42.8070135 L39.8178671,45.1519999 C39.9132298,45.6077221 39.8590832,45.9727856 39.6513865,46.2674266 C39.3370128,46.7150543 38.6508863,47.0258844 37.6867532,47.1618726 L32.4660494,47.726871 C31.6425359,47.6936834 30.7567942,47.3666642 30.3494823,45.3333174 L30.0900634,43.9216308 C30.0294515,43.5921833 29.7183105,43.372012 29.3837329,43.4359588 C29.0540042,43.4966678 28.8374178,43.813164 28.8980297,44.1426116 L29.1606812,45.5632022 C29.5970867,47.7543924 30.7115373,48.8908649 32.4700902,48.9418605 L32.4886778,48.9418605 C32.5104981,48.9418605 32.5315102,48.941051 32.5533305,48.9386227 L37.8362625,48.3671486 C39.1794219,48.1769271 40.123351,47.7058252 40.6438051,46.9659848 C41.0422272,46.398558 41.1666837,45.6854296 41.0074764,44.9172584 L40.5734953,42.5852233 L40.5734953,42.5852233 Z M56.0707425,38.1461811 L48.2703968,17.0024502 C48.00128,16.2698949 47.1535217,15.8570737 46.3881956,16.1322879 C46.0188672,16.2690855 45.7255057,16.5410618 45.5614495,16.8996496 C45.4175973,17.2153364 45.3965852,17.5617825 45.4887152,17.8888016 L14.9136552,38.7605562 C14.7261624,38.7330348 14.5330125,38.7500333 14.356834,38.8196463 C14.0788275,38.9240658 13.8582002,39.1345237 13.7377846,39.4105473 C13.6117119,39.6946654 13.6076711,40.0241129 13.7216214,40.3114689 L15.2409594,44.213034 C15.4195624,44.6776602 15.8600088,44.9666351 16.3246999,44.9666351 C16.4580461,44.9666351 16.5922004,44.9439704 16.7215057,44.8937843 C16.9453656,44.8063633 17.1288176,44.6501388 17.2516577,44.4518227 L53.5460554,39.5530111 C53.8192129,39.8986476 54.242688,40.1123433 54.7001057,40.1123433 C54.7825378,40.1123433 54.8657782,40.1050583 54.966798,40.0880597 C55.0411486,40.0726801 55.1106502,40.0540627 55.1938905,40.0249224 C55.5672597,39.8913626 55.8622376,39.6218146 56.0279101,39.2656551 C56.1919662,38.9111146 56.2065131,38.5128635 56.0707425,38.1461811 L56.0707425,38.1461811 Z M16.7320118,43.2967328 C16.5461353,43.3218259 16.3885444,43.4294832 16.2956062,43.5808509 L14.8999165,40.0346358 C15.1181193,40.0815841 15.3476363,40.0087333 15.4931048,39.8322725 L20.7938163,36.2148255 L23.0728233,42.4403312 L16.7320118,43.2967328 L16.7320118,43.2967328 Z M24.305265,42.2743932 L21.8274511,35.5097916 L45.9113821,19.0697941 L53.0409563,38.3963022 L24.305265,42.2743932 L24.305265,42.2743932 Z M54.9271982,38.7548901 C54.9086106,38.7961722 54.8673945,38.8528339 54.7445544,38.894116 L54.7001057,38.8981633 C54.6104001,38.8981633 54.4996824,38.8487867 54.4584663,38.7362726 L46.6548879,17.5844472 C46.6274106,17.5107869 46.64519,17.4460306 46.6629695,17.405558 C46.6799409,17.3691326 46.7211569,17.3035669 46.8019728,17.2728076 C46.8318746,17.2630942 46.8625847,17.257428 46.8916784,17.257428 C46.981384,17.257428 47.0904854,17.3076141 47.1325096,17.4225565 L54.9336635,38.5687158 C54.9635653,38.6488517 54.9474022,38.7144174 54.9271982,38.7548901 L54.9271982,38.7548901 Z" id="Recruitment" fill="#FFFFFF"></path>
            </g>
        </g>
    </g>
</svg>