<?xml version="1.0" encoding="UTF-8"?>
<svg width="69px" height="69px" viewBox="0 0 69 69" version="1.1" xmlns="http://www.w3.org/2000/svg" xmlns:xlink="http://www.w3.org/1999/xlink">
    <!-- Generator: Sketch 52.6 (67491) - http://www.bohemiancoding.com/sketch -->
    <title>Group 12</title>
    <desc>Created with Sketch.</desc>
    <g id="Page-1" stroke="none" stroke-width="1" fill="none" fill-rule="evenodd">
        <g id="Desktop-HD-Copy" transform="translate(-939.000000, -1717.000000)">
            <g id="Group-12" transform="translate(939.000000, 1717.000000)">
                <circle id="Oval-Copy-3" fill="#028C01" cx="34.5" cy="34.5" r="34.5"></circle>
                <path d="M26.4985273,36.1461263 C24.2559585,36.1461263 22.432614,37.9597515 22.432614,40.1882166 C22.432614,42.417481 24.2559585,44.2311063 26.4985273,44.2311063 C28.7419008,44.2311063 30.5676592,42.417481 30.5676592,40.1882166 C30.5676592,37.9597515 28.7419008,36.1461263 26.4985273,36.1461263 L26.4985273,36.1461263 Z M26.4985273,43.0321473 C24.9222114,43.0321473 23.639594,41.7564549 23.639594,40.1882166 C23.639594,38.6207776 24.9222114,37.3450852 26.4985273,37.3450852 C28.0764525,37.3450852 29.3606792,38.6207776 29.3606792,40.1882166 C29.3606792,41.7564549 28.0764525,43.0321473 26.4985273,43.0321473 L26.4985273,43.0321473 Z M47.5265327,25.0365724 C45.9743565,25.0365724 44.7134647,26.2898842 44.7134647,27.8301468 C44.7134647,29.3712088 45.9743565,30.6245205 47.5265327,30.6245205 C49.076295,30.6245205 50.3371868,29.3712088 50.3371868,27.8301468 C50.3371868,26.2898842 49.076295,25.0365724 47.5265327,25.0365724 L47.5265327,25.0365724 Z M47.5265327,29.4255616 C46.6398048,29.4255616 45.9204447,28.7101827 45.9204447,27.8301468 C45.9204447,26.9509103 46.6398048,26.2355314 47.5265327,26.2355314 C48.4108467,26.2355314 49.1310115,26.9509103 49.1310115,27.8301468 C49.1310115,28.7101827 48.4108467,29.4255616 47.5265327,29.4255616 L47.5265327,29.4255616 Z M55.8522807,26.0373035 L54.6477147,26.0373035 C54.6235751,26.033307 54.5777099,25.9989368 54.547133,25.9230028 L53.8269683,24.1885088 C53.8197264,24.1669275 53.825359,24.1149726 53.8390381,24.0965886 L54.6847287,23.2533208 C54.8987665,23.0447019 55.0162459,22.7665434 55.0162459,22.4692016 C55.0162459,22.1718598 54.8987665,21.892902 54.6895567,21.6898783 L53.704661,20.7035347 C53.279804,20.2958887 52.5532021,20.2990859 52.1388056,20.7107285 L51.2174776,21.5739789 L49.3901098,20.8346209 C49.3683842,20.8234306 49.3345888,20.7786695 49.3321748,20.7586868 L49.3321748,19.5581292 C49.3321748,18.9490581 48.8324851,18.4534884 48.2193393,18.4534884 L46.8313123,18.4534884 C46.2197757,18.4534884 45.7225,18.9490581 45.7225,19.5581292 L45.7233046,20.7522924 C45.7176721,20.7770709 45.6814627,20.8234306 45.6074345,20.8530049 L43.8613368,21.5707817 L43.7688017,21.5619893 L42.9126505,20.7115278 C42.4926215,20.2974873 41.7652149,20.2958887 41.3419673,20.7123271 L40.3570716,21.689079 C39.9273867,22.1199049 39.9273867,22.8192976 40.3594855,23.2501236 L41.2108088,24.0941907 C41.2244879,24.113374 41.2325344,24.1653289 41.1971297,24.2444602 L40.4842068,25.9773556 C40.4729417,25.9989368 40.4262718,26.033307 40.4085694,26.0373035 L39.1983708,26.0373035 C38.5852249,26.0373035 38.0855352,26.5328732 38.0855352,27.1419444 L38.0855352,28.5199479 C38.0855352,29.1290191 38.5852249,29.6245888 39.1983708,29.6245888 L40.4021322,29.6237895 C40.4262718,29.6285853 40.4729417,29.6621561 40.5027138,29.7372909 L41.2236832,31.4725842 C41.2325344,31.4949648 41.2244879,31.5469196 41.2140274,31.5629058 L40.3570716,32.4117687 C39.926582,32.8441933 39.926582,33.543586 40.3594855,33.9728133 L41.3451859,34.954361 C41.7668242,35.3628064 42.4926215,35.3636057 42.9134552,34.9471673 L43.833174,34.0871141 L45.659737,34.8256728 C45.683072,34.8368631 45.7176721,34.8832228 45.7225,34.9024062 L45.7225,36.1029637 C45.7225,36.7112356 46.2197757,37.2068053 46.8313123,37.2068053 L48.2193393,37.2068053 C48.8324851,37.2068053 49.3321748,36.7112356 49.3321748,36.1029637 L49.3321748,34.9064027 C49.3345888,34.8816242 49.3683842,34.8368631 49.4440216,34.8072887 L51.1917286,34.0903113 L51.2826545,34.0991036 L52.1371963,34.9471673 C52.5532021,35.3636057 53.2765854,35.3723981 53.7127075,34.9479666 L54.6831194,33.9776091 C54.8971572,33.7705889 55.0146366,33.4916311 55.0162459,33.1942893 C55.0170506,32.8961481 54.8995712,32.616391 54.6879474,32.4109694 L53.8390381,31.5685009 C53.825359,31.5485183 53.8189218,31.4941655 53.8535219,31.4158335 L54.5672494,29.685336 C54.5777099,29.6621561 54.6235751,29.627786 54.6436914,29.6245888 L55.8522807,29.6245888 C56.4654266,29.6245888 56.9651163,29.1290191 56.9651163,28.5199479 L56.9651163,27.1419444 C56.9651163,26.5328732 56.4654266,26.0373035 55.8522807,26.0373035 L55.8522807,26.0373035 Z M55.7573316,28.4256298 L54.6436914,28.4256298 C54.0973318,28.4256298 53.5678699,28.8172897 53.4326882,29.2808872 L52.7656306,30.9002811 C52.5033136,31.3766675 52.5950441,32.0265032 52.9820823,32.4109694 L53.767424,33.1918914 L52.9249519,34.0343599 L52.1363917,33.25104 C51.9030422,33.0200406 51.5683064,32.8881551 51.2198915,32.8881551 C51.0026351,32.8881551 50.7934252,32.94011 50.6775552,33.008051 L49.0441089,33.6770701 C48.5194749,33.8297375 48.1251948,34.3564802 48.1251948,34.9024062 L48.1251948,36.0078463 L46.92948,36.0078463 L46.92948,34.9024062 C46.92948,34.3588781 46.5327859,33.8321354 46.0660869,33.6986513 L44.4358593,33.0376253 C43.9683557,32.7802488 43.2892283,32.8777641 42.9134552,33.2518393 L42.1265042,34.0351592 L41.2792043,33.1918914 L42.0653506,32.4117687 C42.4548028,32.0281018 42.5489472,31.3766675 42.3131838,30.9602291 L41.639689,29.3408351 C41.4851955,28.8188883 40.9557337,28.4256298 40.4085694,28.4256298 L39.2925152,28.4256298 L39.2925152,27.2362625 L40.4085694,27.2362625 C40.9565383,27.2362625 41.4851955,26.8422046 41.618768,26.3794065 L42.2834116,24.7624105 C42.5505566,24.2844255 42.4572168,23.6321918 42.0669599,23.2493243 L41.2792043,22.4692016 L42.1289182,21.6275324 L42.9150645,22.4116516 C43.1492186,22.6410524 43.4831498,22.7729379 43.8347833,22.7729379 C44.0504304,22.7729379 44.2580309,22.7217823 44.3755103,22.653042 L46.0081519,21.9824243 C46.5327859,21.8273589 46.92948,21.3014156 46.92948,20.7586868 L46.92948,19.6524473 L48.1251948,19.6524473 L48.1251948,20.7586868 C48.1251948,21.3038135 48.5194749,21.8297568 48.9845646,21.9624416 L50.6164015,22.6250663 C51.0839051,22.8800449 51.7573999,22.7833289 52.1363917,22.410053 L52.9249519,21.6259338 L53.767424,22.4692016 L52.9885195,23.246127 C52.5966534,23.6281953 52.5008996,24.2796297 52.7374677,24.7000646 L53.4117672,26.3226558 C53.5678699,26.8438033 54.0973318,27.2362625 54.6436914,27.2362625 L55.7573316,27.2362625 L55.7573316,28.4256298 L55.7573316,28.4256298 Z M39.5604648,37.7159632 L37.6679202,37.7159632 C37.4949197,37.7159632 37.2688121,37.548109 37.1996119,37.3267012 L36.0787298,34.6306421 C35.9974598,34.4827705 36.0376925,34.2102072 36.1583905,34.0903113 L37.4949197,32.7610654 C37.758846,32.4988931 37.9052929,32.1495964 37.9052929,31.7779191 C37.9052929,31.4062418 37.7604553,31.0561458 37.4957243,30.7939734 L35.9532039,29.2561087 C35.423742,28.7405563 34.5072419,28.739757 33.97778,29.2601052 L32.6388369,30.5933476 C32.5664181,30.6660845 32.4247991,30.7140428 32.2896173,30.7140428 C32.2123706,30.7140428 32.1415611,30.698856 32.0289096,30.6429046 L29.3180326,29.5374644 C29.1546879,29.4895061 28.989734,29.2657004 28.989734,29.0930503 L28.989734,27.2106847 C28.989734,26.4425517 28.3596905,25.8174944 27.5864186,25.8174944 L25.4098313,25.8174944 C24.6373642,25.8174944 24.0105392,26.4425517 24.0105392,27.2106847 L24.0105392,29.0930503 C24.0105392,29.2617038 23.8391481,29.4895061 23.618673,29.5574471 L20.9037727,30.6724789 C20.7669816,30.7476137 20.4748925,30.7068491 20.362241,30.5949462 L19.0192746,29.2609045 C18.4898127,28.7389577 17.5668754,28.7413557 17.0422414,29.2625032 L15.5013303,30.7915755 C15.23499,31.0545472 15.0869338,31.4054425 15.0869338,31.7779191 C15.0885431,32.1503957 15.23499,32.4996924 15.4989163,32.7602661 L16.8394687,34.0911106 C16.9601667,34.2110065 17.0003994,34.4819712 16.8885526,34.6921887 L15.7789357,37.3826526 C15.7298518,37.5449117 15.5005256,37.7159632 15.3323531,37.7159632 L13.4333712,37.7159632 C12.6625133,37.7159632 12.0348837,38.3402212 12.0348837,39.1075549 L12.0348837,41.2704769 C12.0348837,42.0378106 12.6625133,42.6620686 13.4333712,42.6620686 L15.3323531,42.6620686 C15.5037442,42.6620686 15.7282425,42.8291236 15.799052,43.0489327 L16.9183248,45.7457911 C16.9995948,45.8936627 16.9601667,46.1654267 16.8394687,46.2853226 L15.5013303,47.6137692 C15.23499,47.8767408 15.0869338,48.2276362 15.0869338,48.6017114 C15.0885431,48.9749873 15.23499,49.3250833 15.4989163,49.5832591 L17.0422414,51.1195252 C17.5733126,51.6374755 18.4898127,51.6350776 19.0208839,51.1131308 L20.362241,49.781487 C20.4330505,49.7103488 20.5714509,49.6623904 20.7050233,49.6623904 C20.7822701,49.6623904 20.8530795,49.6783765 20.9665357,49.7359266 L23.6774127,50.8389688 C23.8391481,50.8869272 24.0105392,51.1147294 24.0105392,51.2825836 L24.0105392,53.1657485 C24.0105392,53.9330823 24.6373642,54.5581395 25.4098313,54.5581395 L27.5864186,54.5581395 C28.3596905,54.5581395 28.989734,53.9330823 28.989734,53.1657485 L28.989734,51.2825836 C28.989734,51.1107328 29.1546879,50.8869272 29.375163,50.8189862 L32.088454,49.7071515 C32.2324869,49.6296189 32.5261854,49.6703835 32.6372275,49.7806877 L33.97778,51.1155287 C34.5040233,51.6390741 35.4253513,51.6406727 35.9572272,51.1155287 L37.4933104,49.585657 C37.758846,49.324284 37.9052929,48.974188 37.9052929,48.6017114 C37.9052929,48.2284355 37.7604553,47.8775401 37.4949197,47.6153678 L36.1567812,46.2885199 C36.0360832,46.1670253 35.9974598,45.8936627 36.108502,45.6842445 L37.2197283,42.9937806 C37.2688121,42.8291236 37.4949197,42.6620686 37.6679202,42.6620686 L39.5604648,42.6620686 C40.3353459,42.6620686 40.9645848,42.0378106 40.9645848,41.2704769 L40.9645848,39.1075549 C40.9645848,38.3402212 40.3353459,37.7159632 39.5604648,37.7159632 L39.5604648,37.7159632 Z M39.7576048,41.2704769 C39.7576048,41.3743867 39.6682883,41.4631096 39.5604648,41.4631096 L37.6679202,41.4631096 C36.955802,41.4631096 36.2662141,41.9730669 36.0835578,42.5941276 L35.0214154,45.1662943 C34.6850703,45.7737668 34.8057683,46.636218 35.2998254,47.1333863 L36.6427918,48.4642307 C36.691071,48.5121891 36.6983129,48.5697391 36.6983129,48.6001128 C36.6983129,48.6304864 36.691071,48.6872371 36.6411825,48.7359948 L35.1050993,50.2666657 C35.0069316,50.3625824 34.9280756,50.3641811 34.8323218,50.2682643 L33.4893554,48.9310254 C33.1884151,48.6344829 32.7514883,48.4634314 32.2920313,48.4634314 C32.0104026,48.4634314 31.7400391,48.5305731 31.5702572,48.6272892 L28.9760549,49.6895668 C28.3057787,49.8853968 27.782754,50.5855888 27.782754,51.2825836 L27.782754,53.1657485 C27.782754,53.2704576 27.6918282,53.3599799 27.5864186,53.3599799 L25.4098313,53.3599799 C25.3052264,53.3599799 25.2175192,53.2704576 25.2175192,53.1657485 L25.2175192,51.2825836 C25.2175192,50.5863881 24.6912759,49.8861961 24.0781301,49.7095495 L21.4871464,48.6568635 C21.2570155,48.5305731 20.986652,48.4634314 20.7050233,48.4634314 C20.2447616,48.4634314 19.8086395,48.6344829 19.5076992,48.932624 L18.168756,50.2634685 C18.071393,50.3617831 17.9860997,50.3593852 17.89276,50.2682643 L16.3502395,48.7327975 C16.302765,48.6864378 16.2955231,48.6304864 16.2939138,48.6001128 C16.2939138,48.5705384 16.302765,48.5137877 16.3534581,48.4634314 L17.6948152,47.1317877 C18.1977236,46.6306228 18.3184216,45.7849571 18.0029975,45.2286401 L16.9352225,42.650079 C16.7348638,41.9842571 16.0299875,41.4631096 15.3323531,41.4631096 L13.4333712,41.4631096 C13.3303756,41.4631096 13.2418637,41.3743867 13.2418637,41.2704769 L13.2418637,39.1075549 C13.2418637,39.0036451 13.3303756,38.9149222 13.4333712,38.9149222 L15.3323531,38.9149222 C16.0299875,38.9149222 16.7348638,38.3929754 16.9151062,37.7815063 L17.9740299,35.210139 C18.3135936,34.6010678 18.1904817,33.7362187 17.6915966,33.2430469 L16.3510442,31.9106039 C16.3051789,31.8650434 16.2955231,31.8122892 16.2939138,31.7779191 C16.2939138,31.7475454 16.302765,31.6907947 16.3534581,31.6420371 L17.8975879,30.1105668 C17.9893184,30.0162487 18.071393,30.0138508 18.1671467,30.1105668 L19.5101131,31.4438092 C19.8094442,31.7427496 20.2463709,31.9130018 20.7074373,31.9130018 C20.9882613,31.9130018 21.2586248,31.8466594 21.4251881,31.7507427 L24.020195,30.6868664 C24.6920806,30.4894378 25.2175192,29.7892458 25.2175192,29.0930503 L25.2175192,27.2106847 C25.2175192,27.1035777 25.3028125,27.0164533 25.4098313,27.0164533 L27.5864186,27.0164533 C27.6918282,27.0164533 27.782754,27.1051763 27.782754,27.2106847 L27.782754,29.0930503 C27.782754,29.7900451 28.3057787,30.4902371 28.9173152,30.6660845 L31.5091036,31.7219677 C32.1150075,32.0512817 33.0001262,31.9257907 33.4917694,31.4430099 L34.8291032,30.1097675 C34.9288802,30.0130515 35.0149781,30.0202452 35.1018807,30.1073696 L36.6411825,31.6420371 C36.691071,31.6899954 36.6983129,31.7467461 36.6983129,31.7779191 C36.6983129,31.8066941 36.691071,31.8634448 36.6411825,31.9122025 L35.305458,33.2422476 C34.8073776,33.7346201 34.683461,34.5986699 34.9932525,35.1469938 L36.0634414,37.7255549 C36.2662141,38.4041657 36.955802,38.9149222 37.6679202,38.9149222 L39.5604648,38.9149222 C39.6682883,38.9149222 39.7576048,39.0036451 39.7576048,39.1075549 L39.7576048,41.2704769 L39.7576048,41.2704769 Z" id="Training" fill="#FFFFFF"></path>
            </g>
        </g>
    </g>
</svg>